<svg xmlns="http://www.w3.org/2000/svg" xmlns:oryx="http://oryx-editor.org" id="_EF9B0AF4-4012-4AEB-8937-05FDE9AB07D8" width="711" height="265.25" xmlns:xlink="http://www.w3.org/1999/xlink" xmlns:svg="http://www.w3.org/2000/svg"><defs><marker id="_07CEAE93-1FB0-4E85-ADF7-0DA60E74F73Dstart" refX="1" refY="5" markerUnits="userSpaceOnUse" markerWidth="17" markerHeight="11" orient="auto" fill="#000000" stroke="#000000"> 	  		<path id="_07CEAE93-1FB0-4E85-ADF7-0DA60E74F73Dconditional" d="M 0 5 L 8 0 L 16 5 L 8 10 L 0 5" fill="white" stroke="#000000" stroke-width="1" display="none"/> 			<path id="_07CEAE93-1FB0-4E85-ADF7-0DA60E74F73Ddefault" d="M 5 0 L 11 10" fill="white" stroke="#000000" stroke-width="1" display="none"/> 	  	</marker><marker id="_07CEAE93-1FB0-4E85-ADF7-0DA60E74F73Dend" refX="15" refY="6" markerUnits="userSpaceOnUse" markerWidth="15" markerHeight="12" orient="auto" fill="#000000" stroke="#000000"> 	  		<path id="_07CEAE93-1FB0-4E85-ADF7-0DA60E74F73Dframe2" d="M 0 1 L 15 6 L 0 11z" fill="#000000" stroke="#000000" stroke-linejoin="round" stroke-width="2"/> 	  	</marker><marker id="_706BB094-ADA6-44F3-BBFA-95341075D5B2start" refX="1" refY="5" markerUnits="userSpaceOnUse" markerWidth="17" markerHeight="11" orient="auto" fill="#000000" stroke="#000000"> 	  		<path id="_706BB094-ADA6-44F3-BBFA-95341075D5B2conditional" d="M 0 5 L 8 0 L 16 5 L 8 10 L 0 5" fill="white" stroke="#000000" stroke-width="1" display="none"/> 			<path id="_706BB094-ADA6-44F3-BBFA-95341075D5B2default" d="M 5 0 L 11 10" fill="white" stroke="#000000" stroke-width="1" display="none"/> 	  	</marker><marker id="_706BB094-ADA6-44F3-BBFA-95341075D5B2end" refX="15" refY="6" markerUnits="userSpaceOnUse" markerWidth="15" markerHeight="12" orient="auto" fill="#000000" stroke="#000000"> 	  		<path id="_706BB094-ADA6-44F3-BBFA-95341075D5B2frame2" d="M 0 1 L 15 6 L 0 11z" fill="#000000" stroke="#000000" stroke-linejoin="round" stroke-width="2"/> 	  	</marker><marker id="_9BDEB062-0CD5-485F-B670-3E4BBD29D5D8start" refX="1" refY="5" markerUnits="userSpaceOnUse" markerWidth="17" markerHeight="11" orient="auto" fill="#000000" stroke="#000000"> 	  		<path id="_9BDEB062-0CD5-485F-B670-3E4BBD29D5D8conditional" d="M 0 5 L 8 0 L 16 5 L 8 10 L 0 5" fill="white" stroke="#000000" stroke-width="1" display="none"/> 			<path id="_9BDEB062-0CD5-485F-B670-3E4BBD29D5D8default" d="M 5 0 L 11 10" fill="white" stroke="#000000" stroke-width="1" display="none"/> 	  	</marker><marker id="_9BDEB062-0CD5-485F-B670-3E4BBD29D5D8end" refX="15" refY="6" markerUnits="userSpaceOnUse" markerWidth="15" markerHeight="12" orient="auto" fill="#000000" stroke="#000000"> 	  		<path id="_9BDEB062-0CD5-485F-B670-3E4BBD29D5D8frame2" d="M 0 1 L 15 6 L 0 11z" fill="#000000" stroke="#000000" stroke-linejoin="round" stroke-width="2"/> 	  	</marker></defs><g stroke="none" font-family="Verdana, sans-serif" font-size-adjust="none" font-style="normal" font-variant="normal" font-weight="normal" line-heigth="normal" font-size="12"><g class="stencils" transform="translate(15, 16.25)"><g class="me"/><g class="children"><g id="_16A34C68-336D-4E1A-9D11-CE92946582D1" bpmn2nodeid="processStartEvent"><g class="stencils" transform="translate(180, 165)"><g class="me"><g pointer-events="fill" id="_16A34C68-336D-4E1A-9D11-CE92946582D1">        <defs id="_16A34C68-336D-4E1A-9D11-CE92946582D1__16A34C68-336D-4E1A-9D11-CE92946582D1_5"> 		<radialGradient id="_16A34C68-336D-4E1A-9D11-CE92946582D1background" cx="10%" cy="10%" r="100%" fx="10%" fy="10%"> 			<stop offset="0%" stop-color="#ffffff" stop-opacity="1" id="_16A34C68-336D-4E1A-9D11-CE92946582D1__16A34C68-336D-4E1A-9D11-CE92946582D1_6"/> 			<stop id="_16A34C68-336D-4E1A-9D11-CE92946582D1fill_el" offset="100%" stop-color="#9acd32" stop-opacity="1"/> 		</radialGradient> 	</defs> 	     <circle id="_16A34C68-336D-4E1A-9D11-CE92946582D1bg_frame" cx="15" cy="15" r="15" stroke="#000000" fill="url(#_16A34C68-336D-4E1A-9D11-CE92946582D1background) white" stroke-width="1" style="stroke-dasharray: 5.5, 3"/>      <circle id="_16A34C68-336D-4E1A-9D11-CE92946582D1frame" cx="15" cy="15" r="15" stroke="#000000" fill="none" stroke-width="1" display="inherit"/>  	<text font-size="11" id="_16A34C68-336D-4E1A-9D11-CE92946582D1text_name" x="15" y="32" oryx:align="top center" stroke="black" stroke-width="0pt" letter-spacing="-0.01px" fill="#000000" text-anchor="middle" transform="rotate(0 15 32)" visibility="inherit" oryx:fontSize="11"/>   </g></g><g class="children" style="overflow:hidden"/><g class="edge"/></g><g class="controls"><g class="dockers"/><g class="magnets" transform="translate(180, 165)"><g pointer-events="all" display="none" transform="translate(7, 7)"><circle cx="8" cy="8" r="4" stroke="none" fill="red" fill-opacity="0.3"/></g></g></g></g><g id="_C8B858F8-55E2-4FFC-B7B8-DEC8EA948DA8" bpmn2nodeid="_D1CAE823-2207-4D8D-82C6-2275F870C286"><g class="stencils" transform="translate(300, 140)"><g class="me"><g pointer-events="fill" oryx:minimumSize="50 40" id="_C8B858F8-55E2-4FFC-B7B8-DEC8EA948DA8">   	<defs id="_C8B858F8-55E2-4FFC-B7B8-DEC8EA948DA8__C8B858F8-55E2-4FFC-B7B8-DEC8EA948DA8_17"> 		<radialGradient id="_C8B858F8-55E2-4FFC-B7B8-DEC8EA948DA8background" cx="10%" cy="10%" r="100%" fx="10%" fy="10%"> 			<stop offset="0%" stop-color="#ffffff" stop-opacity="1" id="_C8B858F8-55E2-4FFC-B7B8-DEC8EA948DA8__C8B858F8-55E2-4FFC-B7B8-DEC8EA948DA8_18"/> 			<stop id="_C8B858F8-55E2-4FFC-B7B8-DEC8EA948DA8fill_el" offset="100%" stop-color="#fafad2" stop-opacity="1"/> 		</radialGradient> 		<radialGradient id="_C8B858F8-55E2-4FFC-B7B8-DEC8EA948DA8borderbackground" cx="10%" cy="10%" r="100%" fx="10%" fy="10%"> 			<stop offset="0%" stop-color="#ffffff" stop-opacity="1" id="_C8B858F8-55E2-4FFC-B7B8-DEC8EA948DA8__C8B858F8-55E2-4FFC-B7B8-DEC8EA948DA8_19"/> 			<stop id="_C8B858F8-55E2-4FFC-B7B8-DEC8EA948DA8fill_border" offset="100%" stop-color="#000000" stop-opacity="1" stroke="#000000"/> 		</radialGradient> 	</defs> 	 	<rect id="_C8B858F8-55E2-4FFC-B7B8-DEC8EA948DA8text_frame" oryx:anchors="bottom top right left" x="1" y="1" width="94" height="79" rx="10" ry="10" stroke="none" stroke-width="0" fill="none"/> 	<rect id="_C8B858F8-55E2-4FFC-B7B8-DEC8EA948DA8bg_frame" oryx:resize="vertical horizontal" x="0" y="0" width="100" height="80" rx="10" ry="10" stroke="#000000" stroke-width="1" fill="url(#_C8B858F8-55E2-4FFC-B7B8-DEC8EA948DA8background) #ffffcc"/> 		<text font-size="12" id="_C8B858F8-55E2-4FFC-B7B8-DEC8EA948DA8text_name" x="50" y="40" oryx:align="middle center" oryx:fittoelem="text_frame" stroke="black" text-anchor="middle" stroke-width="0pt" letter-spacing="-0.01px" fill="#000000" transform="rotate(0 50 40)" visibility="inherit" oryx:fontSize="12"><tspan x="50" y="40" dy="-1" id="ext-gen788">Search </tspan><tspan x="50" y="40" dy="11" id="ext-gen834">position offer</tspan></text>     <g id="_C8B858F8-55E2-4FFC-B7B8-DEC8EA948DA8manualTask" transform="scale(0.7,0.7) translate(8,8)" display="none">     	<path oryx:anchors="top left" id="_C8B858F8-55E2-4FFC-B7B8-DEC8EA948DA8frame" style="opacity:1;fill:none;fill-opacity:1;stroke-width:1" d="M0.5,3.751l4.083-3.25c0,0,11.166,0.083,12.083,0.083s-2.417,2.917-1.5,2.917     s11.667,0,12.584,0c1.166,1.708-0.168,3.167-0.834,3.667s0.875,1.917-1,4.417c-0.75,0.25,0.75,1.875-1.333,3.333     c-1.167,0.583,0.583,1.542-1.25,2.833c-1.167,0-20.833,0.083-20.833,0.083l-2-1.333V3.751z" stroke="#000000"/> 		<path id="_C8B858F8-55E2-4FFC-B7B8-DEC8EA948DA8frame2" oryx:anchors="top left" style="opacity:1;fill:none;stroke-width:2" d="M 13.5 7 L 27 7" stroke="#000000"/> 		<path id="_C8B858F8-55E2-4FFC-B7B8-DEC8EA948DA8frame3" oryx:anchors="top left" style="opacity:1;fill:none;stroke-width:2" d="M 13.5 11 L 26 11" stroke="#000000"/> 		<path id="_C8B858F8-55E2-4FFC-B7B8-DEC8EA948DA8frame4" oryx:anchors="top left" style="opacity:1;fill:none;stroke-width:1.5" d="M 14 14.5 L 25 14.5" stroke="#000000"/> 		<path id="_C8B858F8-55E2-4FFC-B7B8-DEC8EA948DA8frame5" oryx:anchors="top left" style="opacity:1;fill:none;stroke-width:1.5" d="M 8.2 3.1 L 15 3.1" stroke="#000000"/> 	</g> 	 	<g id="_C8B858F8-55E2-4FFC-B7B8-DEC8EA948DA8businessRuleTask" transform="scale(0.7,0.7) translate(8,8)" display="none"> 		<rect id="_C8B858F8-55E2-4FFC-B7B8-DEC8EA948DA8frame6" oryx:anchors="top left" x="0" y="0" width="22" height="4" style="opacity:1;fill:#B3B1B3;fill-opacity:1;" stroke="#000000"/> 		<rect id="_C8B858F8-55E2-4FFC-B7B8-DEC8EA948DA8frame7" oryx:anchors="top left" x="0" y="4" style="opacity:1;fill:none;" width="22" height="12" stroke="#000000"/> 		<path id="_C8B858F8-55E2-4FFC-B7B8-DEC8EA948DA8frame8" oryx:anchors="top left" style="opacity:1;fill:none;" d="M 0 10 L 22 10" stroke="#000000"/> 		<path id="_C8B858F8-55E2-4FFC-B7B8-DEC8EA948DA8frame9" oryx:anchors="top left" style="opacity:1; fill:none;" d="M 7 4 L 7 16" stroke="#000000"/> 	</g> 	 	<g id="_C8B858F8-55E2-4FFC-B7B8-DEC8EA948DA8scriptTask" transform="scale(0.7,0.7) translate(8,8)" display="none"> 		<path oryx:anchors="top left" id="_C8B858F8-55E2-4FFC-B7B8-DEC8EA948DA8frame10" style="opacity:1;fill:none;" stroke="#000000" d="M6.402,0.5h14.5c0,0-5.833,2.833-5.833,5.583s4.417,6,4.417,9.167    s-4.167,5.083-4.167,5.083H0.235c0,0,5-2.667,5-5s-4.583-6.75-4.583-9.25S6.402,0.5,6.402,0.5z"/> 		<path oryx:anchors="top left" id="_C8B858F8-55E2-4FFC-B7B8-DEC8EA948DA8frame11" style="opacity:1;fill:none;stroke-width:1.5" d="M 3.5 4.5 L 13.5 4.5" stroke="#000000"/> 		<path oryx:anchors="top left" id="_C8B858F8-55E2-4FFC-B7B8-DEC8EA948DA8frame12" style="opacity:1;fill:none;stroke-width:1.5" d="M 3.8 8.5 L 13.8 8.5" stroke="#000000"/> 		<path oryx:anchors="top left" id="_C8B858F8-55E2-4FFC-B7B8-DEC8EA948DA8frame13" style="opacity:1;fill:none;stroke-width:1.5" d="M 6.3 12.5 L 16.3 12.5" stroke="#000000"/> 		<path oryx:anchors="top left" id="_C8B858F8-55E2-4FFC-B7B8-DEC8EA948DA8frame14" style="opacity:1;fill:none;stroke-width:1.5" d="M 6.5 16.5 L 16.5 16.5" stroke="#000000"/> 	</g> 	 	<g id="_C8B858F8-55E2-4FFC-B7B8-DEC8EA948DA8userTask" transform="scale(0.7,0.7) translate(8,8)" display="none"> 		<path id="_C8B858F8-55E2-4FFC-B7B8-DEC8EA948DA8frame15" oryx:anchors="top left" style="opacity:1;fill:#F4F6F7" stroke="#000000" d="M0.585,24.167h24.083v-7.833c0,0-2.333-3.917-7.083-5.167h-9.25    c-4.417,1.333-7.833,5.75-7.833,5.75L0.585,24.167z"/> 		<path id="_C8B858F8-55E2-4FFC-B7B8-DEC8EA948DA8frame16" oryx:anchors="top left" style="opacity:1;fill:none" d="M 6 20 L 6 24" stroke="#000000"/> 		<path id="_C8B858F8-55E2-4FFC-B7B8-DEC8EA948DA8frame17" oryx:anchors="top left" style="opacity:1;fill:none" d="M 20 20 L 20 24" stroke="#000000"/> 		<circle id="_C8B858F8-55E2-4FFC-B7B8-DEC8EA948DA8frame18" oryx:anchors="top left" fill="black" cx="13.002" cy="5.916" r="5.417" stroke="#000000"/> 		<path id="_C8B858F8-55E2-4FFC-B7B8-DEC8EA948DA8frame19" oryx:anchors="top left" style="opacity:1;fill:#F0EFF0;" stroke="#000000" d="M8.043,7.083c0,0,2.814-2.426,5.376-1.807s4.624-0.693,4.624-0.693    c0.25,1.688,0.042,3.75-1.458,5.584c0,0,1.083,0.75,1.083,1.5s0.125,1.875-1,3s-5.5,1.25-6.75,0S8.668,12.834,8.668,12    s0.583-1.25,1.25-1.917C8.835,9.5,7.419,7.708,8.043,7.083z"/> 	</g> 	 	<g id="_C8B858F8-55E2-4FFC-B7B8-DEC8EA948DA8serviceTask" transform="scale(0.7,0.7) translate(8,8)" display="none"> 		<polygon oryx:anchors="top left" id="_C8B858F8-55E2-4FFC-B7B8-DEC8EA948DA8frame20" style="opacity:1;fill:#ffffff" stroke="#000000" points="15.392,5.064 17.954,2.502 20.347,4.895 17.786,7.455     18.729,9.732 22.353,9.732 22.353,13.115 18.731,13.115 17.788,15.392 20.351,17.955 17.958,20.347 15.397,17.786 13.12,18.729     13.12,22.353 9.737,22.353 9.737,18.731 7.46,17.788 4.897,20.35 2.506,17.958 5.066,15.397 4.124,13.12 0.5,13.12 0.5,9.737     4.121,9.737 5.065,7.461 2.503,4.898 4.895,2.506 7.455,5.066 9.732,4.125 9.732,0.5 13.116,0.5 13.116,4.121 "/> 		<circle oryx:anchors="top left" id="_C8B858F8-55E2-4FFC-B7B8-DEC8EA948DA8frame21" style="opacity:1;fill:none" stroke="#000000" cx="11.427" cy="11.426" r="3.714"/> 		<polygon oryx:anchors="top left" id="_C8B858F8-55E2-4FFC-B7B8-DEC8EA948DA8frame22" style="opacity:1;fill:#ffffff" stroke="#000000" points="21.392,11.064 23.954,8.502 26.347,10.895 23.786,13.455     24.729,15.732 28.353,15.732 28.353,19.115 24.731,19.115 23.788,21.392 26.351,23.955 23.958,26.347 21.397,23.786 19.12,24.729     19.12,28.353 15.737,28.353 15.737,24.731 13.46,23.788 10.897,26.35 8.506,23.958 11.066,21.397 10.124,19.12 6.5,19.12     6.5,15.737 10.121,15.737 11.065,13.461 8.503,10.898 10.895,8.506 13.455,11.066 15.732,10.125 15.732,6.5 19.116,6.5     19.116,10.121 "/> 		<circle oryx:anchors="top left" id="_C8B858F8-55E2-4FFC-B7B8-DEC8EA948DA8frame23" style="opacity:1;fill:none;" stroke="#000000" cx="17.427" cy="17.426" r="3.714"/> 	</g> 	 	<g id="_C8B858F8-55E2-4FFC-B7B8-DEC8EA948DA8sendTask" display="none"> 		<path id="_C8B858F8-55E2-4FFC-B7B8-DEC8EA948DA8stframe24" oryx:anchors="left top" stroke="#FFFFFF" fill="black" stroke-width="1" d="M8,11 L8,21 L24,21 L24,11 L16,17z"/> 		<path id="_C8B858F8-55E2-4FFC-B7B8-DEC8EA948DA8stframe25" oryx:anchors="left top" stroke="#FFFFFF" fill="black" stroke-width="1" d="M7,10 L16,17 L25 10z"/> 	</g> 	 	<g id="_C8B858F8-55E2-4FFC-B7B8-DEC8EA948DA8receiveTask" display="none"> 		<path id="_C8B858F8-55E2-4FFC-B7B8-DEC8EA948DA8frame26" oryx:anchors="left top" stroke="#000000" fill="none" stroke-width="1" d="M8,11 L8,21 L24,21 L24,11z M8,11 L16,17 L24,11"/> 	</g> 	 	<g id="_C8B858F8-55E2-4FFC-B7B8-DEC8EA948DA8none" display="inherit"/>  	<g id="_C8B858F8-55E2-4FFC-B7B8-DEC8EA948DA8sequential" display="none">         <path oryx:anchors="bottom" fill="none" stroke="#000000" stroke-width="2" d="M46,76h10M46,72h10 M46,68h10" id="_C8B858F8-55E2-4FFC-B7B8-DEC8EA948DA8__C8B858F8-55E2-4FFC-B7B8-DEC8EA948DA8_20"/>     </g>   </g></g><g class="children" style="overflow:hidden"/><g class="edge"/></g><g class="controls"><g class="dockers"/><g class="magnets" transform="translate(300, 140)"><g pointer-events="all" display="none" transform="translate(-7, 12)"><circle cx="8" cy="8" r="4" stroke="none" fill="red" fill-opacity="0.3"/></g><g pointer-events="all" display="none" transform="translate(-7, 32)"><circle cx="8" cy="8" r="4" stroke="none" fill="red" fill-opacity="0.3"/></g><g pointer-events="all" display="none" transform="translate(-7, 52)"><circle cx="8" cy="8" r="4" stroke="none" fill="red" fill-opacity="0.3"/></g><g pointer-events="all" display="none" transform="translate(17, 71)"><circle cx="8" cy="8" r="4" stroke="none" fill="red" fill-opacity="0.3"/></g><g pointer-events="all" display="none" transform="translate(42, 71)"><circle cx="8" cy="8" r="4" stroke="none" fill="red" fill-opacity="0.3"/></g><g pointer-events="all" display="none" transform="translate(67, 71)"><circle cx="8" cy="8" r="4" stroke="none" fill="red" fill-opacity="0.3"/></g><g pointer-events="all" display="none" transform="translate(91, 12)"><circle cx="8" cy="8" r="4" stroke="none" fill="red" fill-opacity="0.3"/></g><g pointer-events="all" display="none" transform="translate(91, 32)"><circle cx="8" cy="8" r="4" stroke="none" fill="red" fill-opacity="0.3"/></g><g pointer-events="all" display="none" transform="translate(91, 52)"><circle cx="8" cy="8" r="4" stroke="none" fill="red" fill-opacity="0.3"/></g><g pointer-events="all" display="none" transform="translate(17, -7)"><circle cx="8" cy="8" r="4" stroke="none" fill="red" fill-opacity="0.3"/></g><g pointer-events="all" display="none" transform="translate(42, -7)"><circle cx="8" cy="8" r="4" stroke="none" fill="red" fill-opacity="0.3"/></g><g pointer-events="all" display="none" transform="translate(67, -7)"><circle cx="8" cy="8" r="4" stroke="none" fill="red" fill-opacity="0.3"/></g><g pointer-events="all" display="none" transform="translate(42, 32)"><circle cx="8" cy="8" r="4" stroke="none" fill="red" fill-opacity="0.3"/></g></g></g></g><g id="_4E1800DB-75BD-4556-8826-C0DAFFAF9A26" bpmn2nodeid="_2840B11F-638F-46E8-A5A3-057D9FFD1175"><g class="stencils" transform="translate(465, 140)"><g class="me"><g pointer-events="fill" oryx:minimumSize="50 40" id="_4E1800DB-75BD-4556-8826-C0DAFFAF9A26">   	<defs id="_4E1800DB-75BD-4556-8826-C0DAFFAF9A26__4E1800DB-75BD-4556-8826-C0DAFFAF9A26_17"> 		<radialGradient id="_4E1800DB-75BD-4556-8826-C0DAFFAF9A26background" cx="10%" cy="10%" r="100%" fx="10%" fy="10%"> 			<stop offset="0%" stop-color="#ffffff" stop-opacity="1" id="_4E1800DB-75BD-4556-8826-C0DAFFAF9A26__4E1800DB-75BD-4556-8826-C0DAFFAF9A26_18"/> 			<stop id="_4E1800DB-75BD-4556-8826-C0DAFFAF9A26fill_el" offset="100%" stop-color="#fafad2" stop-opacity="1"/> 		</radialGradient> 		<radialGradient id="_4E1800DB-75BD-4556-8826-C0DAFFAF9A26borderbackground" cx="10%" cy="10%" r="100%" fx="10%" fy="10%"> 			<stop offset="0%" stop-color="#ffffff" stop-opacity="1" id="_4E1800DB-75BD-4556-8826-C0DAFFAF9A26__4E1800DB-75BD-4556-8826-C0DAFFAF9A26_19"/> 			<stop id="_4E1800DB-75BD-4556-8826-C0DAFFAF9A26fill_border" offset="100%" stop-color="#000000" stop-opacity="1" stroke="#000000"/> 		</radialGradient> 	</defs> 	 	<rect id="_4E1800DB-75BD-4556-8826-C0DAFFAF9A26text_frame" oryx:anchors="bottom top right left" x="1" y="1" width="94" height="79" rx="10" ry="10" stroke="none" stroke-width="0" fill="none"/> 	<rect id="_4E1800DB-75BD-4556-8826-C0DAFFAF9A26bg_frame" oryx:resize="vertical horizontal" x="0" y="0" width="100" height="80" rx="10" ry="10" stroke="#000000" stroke-width="1" fill="url(#_4E1800DB-75BD-4556-8826-C0DAFFAF9A26background) #ffffcc"/> 		<text font-size="12" id="_4E1800DB-75BD-4556-8826-C0DAFFAF9A26text_name" x="50" y="40" oryx:align="middle center" oryx:fittoelem="text_frame" stroke="black" text-anchor="middle" stroke-width="0pt" letter-spacing="-0.01px" fill="#000000" transform="rotate(0 50 40)" visibility="inherit" oryx:fontSize="12"><tspan x="50" y="40" dy="-1" id="ext-gen785">Create CV at </tspan><tspan x="50" y="40" dy="11" id="ext-gen784">position</tspan></text>     <g id="_4E1800DB-75BD-4556-8826-C0DAFFAF9A26manualTask" transform="scale(0.7,0.7) translate(8,8)" display="none">     	<path oryx:anchors="top left" id="_4E1800DB-75BD-4556-8826-C0DAFFAF9A26frame" style="opacity:1;fill:none;fill-opacity:1;stroke-width:1" d="M0.5,3.751l4.083-3.25c0,0,11.166,0.083,12.083,0.083s-2.417,2.917-1.5,2.917     s11.667,0,12.584,0c1.166,1.708-0.168,3.167-0.834,3.667s0.875,1.917-1,4.417c-0.75,0.25,0.75,1.875-1.333,3.333     c-1.167,0.583,0.583,1.542-1.25,2.833c-1.167,0-20.833,0.083-20.833,0.083l-2-1.333V3.751z" stroke="#000000"/> 		<path id="_4E1800DB-75BD-4556-8826-C0DAFFAF9A26frame2" oryx:anchors="top left" style="opacity:1;fill:none;stroke-width:2" d="M 13.5 7 L 27 7" stroke="#000000"/> 		<path id="_4E1800DB-75BD-4556-8826-C0DAFFAF9A26frame3" oryx:anchors="top left" style="opacity:1;fill:none;stroke-width:2" d="M 13.5 11 L 26 11" stroke="#000000"/> 		<path id="_4E1800DB-75BD-4556-8826-C0DAFFAF9A26frame4" oryx:anchors="top left" style="opacity:1;fill:none;stroke-width:1.5" d="M 14 14.5 L 25 14.5" stroke="#000000"/> 		<path id="_4E1800DB-75BD-4556-8826-C0DAFFAF9A26frame5" oryx:anchors="top left" style="opacity:1;fill:none;stroke-width:1.5" d="M 8.2 3.1 L 15 3.1" stroke="#000000"/> 	</g> 	 	<g id="_4E1800DB-75BD-4556-8826-C0DAFFAF9A26businessRuleTask" transform="scale(0.7,0.7) translate(8,8)" display="none"> 		<rect id="_4E1800DB-75BD-4556-8826-C0DAFFAF9A26frame6" oryx:anchors="top left" x="0" y="0" width="22" height="4" style="opacity:1;fill:#B3B1B3;fill-opacity:1;" stroke="#000000"/> 		<rect id="_4E1800DB-75BD-4556-8826-C0DAFFAF9A26frame7" oryx:anchors="top left" x="0" y="4" style="opacity:1;fill:none;" width="22" height="12" stroke="#000000"/> 		<path id="_4E1800DB-75BD-4556-8826-C0DAFFAF9A26frame8" oryx:anchors="top left" style="opacity:1;fill:none;" d="M 0 10 L 22 10" stroke="#000000"/> 		<path id="_4E1800DB-75BD-4556-8826-C0DAFFAF9A26frame9" oryx:anchors="top left" style="opacity:1; fill:none;" d="M 7 4 L 7 16" stroke="#000000"/> 	</g> 	 	<g id="_4E1800DB-75BD-4556-8826-C0DAFFAF9A26scriptTask" transform="scale(0.7,0.7) translate(8,8)" display="none"> 		<path oryx:anchors="top left" id="_4E1800DB-75BD-4556-8826-C0DAFFAF9A26frame10" style="opacity:1;fill:none;" stroke="#000000" d="M6.402,0.5h14.5c0,0-5.833,2.833-5.833,5.583s4.417,6,4.417,9.167    s-4.167,5.083-4.167,5.083H0.235c0,0,5-2.667,5-5s-4.583-6.75-4.583-9.25S6.402,0.5,6.402,0.5z"/> 		<path oryx:anchors="top left" id="_4E1800DB-75BD-4556-8826-C0DAFFAF9A26frame11" style="opacity:1;fill:none;stroke-width:1.5" d="M 3.5 4.5 L 13.5 4.5" stroke="#000000"/> 		<path oryx:anchors="top left" id="_4E1800DB-75BD-4556-8826-C0DAFFAF9A26frame12" style="opacity:1;fill:none;stroke-width:1.5" d="M 3.8 8.5 L 13.8 8.5" stroke="#000000"/> 		<path oryx:anchors="top left" id="_4E1800DB-75BD-4556-8826-C0DAFFAF9A26frame13" style="opacity:1;fill:none;stroke-width:1.5" d="M 6.3 12.5 L 16.3 12.5" stroke="#000000"/> 		<path oryx:anchors="top left" id="_4E1800DB-75BD-4556-8826-C0DAFFAF9A26frame14" style="opacity:1;fill:none;stroke-width:1.5" d="M 6.5 16.5 L 16.5 16.5" stroke="#000000"/> 	</g> 	 	<g id="_4E1800DB-75BD-4556-8826-C0DAFFAF9A26userTask" transform="scale(0.7,0.7) translate(8,8)" display="none"> 		<path id="_4E1800DB-75BD-4556-8826-C0DAFFAF9A26frame15" oryx:anchors="top left" style="opacity:1;fill:#F4F6F7" stroke="#000000" d="M0.585,24.167h24.083v-7.833c0,0-2.333-3.917-7.083-5.167h-9.25    c-4.417,1.333-7.833,5.75-7.833,5.75L0.585,24.167z"/> 		<path id="_4E1800DB-75BD-4556-8826-C0DAFFAF9A26frame16" oryx:anchors="top left" style="opacity:1;fill:none" d="M 6 20 L 6 24" stroke="#000000"/> 		<path id="_4E1800DB-75BD-4556-8826-C0DAFFAF9A26frame17" oryx:anchors="top left" style="opacity:1;fill:none" d="M 20 20 L 20 24" stroke="#000000"/> 		<circle id="_4E1800DB-75BD-4556-8826-C0DAFFAF9A26frame18" oryx:anchors="top left" fill="black" cx="13.002" cy="5.916" r="5.417" stroke="#000000"/> 		<path id="_4E1800DB-75BD-4556-8826-C0DAFFAF9A26frame19" oryx:anchors="top left" style="opacity:1;fill:#F0EFF0;" stroke="#000000" d="M8.043,7.083c0,0,2.814-2.426,5.376-1.807s4.624-0.693,4.624-0.693    c0.25,1.688,0.042,3.75-1.458,5.584c0,0,1.083,0.75,1.083,1.5s0.125,1.875-1,3s-5.5,1.25-6.75,0S8.668,12.834,8.668,12    s0.583-1.25,1.25-1.917C8.835,9.5,7.419,7.708,8.043,7.083z"/> 	</g> 	 	<g id="_4E1800DB-75BD-4556-8826-C0DAFFAF9A26serviceTask" transform="scale(0.7,0.7) translate(8,8)" display="none"> 		<polygon oryx:anchors="top left" id="_4E1800DB-75BD-4556-8826-C0DAFFAF9A26frame20" style="opacity:1;fill:#ffffff" stroke="#000000" points="15.392,5.064 17.954,2.502 20.347,4.895 17.786,7.455     18.729,9.732 22.353,9.732 22.353,13.115 18.731,13.115 17.788,15.392 20.351,17.955 17.958,20.347 15.397,17.786 13.12,18.729     13.12,22.353 9.737,22.353 9.737,18.731 7.46,17.788 4.897,20.35 2.506,17.958 5.066,15.397 4.124,13.12 0.5,13.12 0.5,9.737     4.121,9.737 5.065,7.461 2.503,4.898 4.895,2.506 7.455,5.066 9.732,4.125 9.732,0.5 13.116,0.5 13.116,4.121 "/> 		<circle oryx:anchors="top left" id="_4E1800DB-75BD-4556-8826-C0DAFFAF9A26frame21" style="opacity:1;fill:none" stroke="#000000" cx="11.427" cy="11.426" r="3.714"/> 		<polygon oryx:anchors="top left" id="_4E1800DB-75BD-4556-8826-C0DAFFAF9A26frame22" style="opacity:1;fill:#ffffff" stroke="#000000" points="21.392,11.064 23.954,8.502 26.347,10.895 23.786,13.455     24.729,15.732 28.353,15.732 28.353,19.115 24.731,19.115 23.788,21.392 26.351,23.955 23.958,26.347 21.397,23.786 19.12,24.729     19.12,28.353 15.737,28.353 15.737,24.731 13.46,23.788 10.897,26.35 8.506,23.958 11.066,21.397 10.124,19.12 6.5,19.12     6.5,15.737 10.121,15.737 11.065,13.461 8.503,10.898 10.895,8.506 13.455,11.066 15.732,10.125 15.732,6.5 19.116,6.5     19.116,10.121 "/> 		<circle oryx:anchors="top left" id="_4E1800DB-75BD-4556-8826-C0DAFFAF9A26frame23" style="opacity:1;fill:none;" stroke="#000000" cx="17.427" cy="17.426" r="3.714"/> 	</g> 	 	<g id="_4E1800DB-75BD-4556-8826-C0DAFFAF9A26sendTask" display="none"> 		<path id="_4E1800DB-75BD-4556-8826-C0DAFFAF9A26stframe24" oryx:anchors="left top" stroke="#FFFFFF" fill="black" stroke-width="1" d="M8,11 L8,21 L24,21 L24,11 L16,17z"/> 		<path id="_4E1800DB-75BD-4556-8826-C0DAFFAF9A26stframe25" oryx:anchors="left top" stroke="#FFFFFF" fill="black" stroke-width="1" d="M7,10 L16,17 L25 10z"/> 	</g> 	 	<g id="_4E1800DB-75BD-4556-8826-C0DAFFAF9A26receiveTask" display="none"> 		<path id="_4E1800DB-75BD-4556-8826-C0DAFFAF9A26frame26" oryx:anchors="left top" stroke="#000000" fill="none" stroke-width="1" d="M8,11 L8,21 L24,21 L24,11z M8,11 L16,17 L24,11"/> 	</g> 	 	<g id="_4E1800DB-75BD-4556-8826-C0DAFFAF9A26none" display="inherit"/>  	<g id="_4E1800DB-75BD-4556-8826-C0DAFFAF9A26sequential" display="none">         <path oryx:anchors="bottom" fill="none" stroke="#000000" stroke-width="2" d="M46,76h10M46,72h10 M46,68h10" id="_4E1800DB-75BD-4556-8826-C0DAFFAF9A26__4E1800DB-75BD-4556-8826-C0DAFFAF9A26_20"/>     </g>   </g></g><g class="children" style="overflow:hidden"/><g class="edge"/></g><g class="controls"><g class="dockers"/><g class="magnets" transform="translate(465, 140)"><g pointer-events="all" display="none" transform="translate(-7, 12)"><circle cx="8" cy="8" r="4" stroke="none" fill="red" fill-opacity="0.3"/></g><g pointer-events="all" display="none" transform="translate(-7, 32)"><circle cx="8" cy="8" r="4" stroke="none" fill="red" fill-opacity="0.3"/></g><g pointer-events="all" display="none" transform="translate(-7, 52)"><circle cx="8" cy="8" r="4" stroke="none" fill="red" fill-opacity="0.3"/></g><g pointer-events="all" display="none" transform="translate(17, 71)"><circle cx="8" cy="8" r="4" stroke="none" fill="red" fill-opacity="0.3"/></g><g pointer-events="all" display="none" transform="translate(42, 71)"><circle cx="8" cy="8" r="4" stroke="none" fill="red" fill-opacity="0.3"/></g><g pointer-events="all" display="none" transform="translate(67, 71)"><circle cx="8" cy="8" r="4" stroke="none" fill="red" fill-opacity="0.3"/></g><g pointer-events="all" display="none" transform="translate(91, 12)"><circle cx="8" cy="8" r="4" stroke="none" fill="red" fill-opacity="0.3"/></g><g pointer-events="all" display="none" transform="translate(91, 32)"><circle cx="8" cy="8" r="4" stroke="none" fill="red" fill-opacity="0.3"/></g><g pointer-events="all" display="none" transform="translate(91, 52)"><circle cx="8" cy="8" r="4" stroke="none" fill="red" fill-opacity="0.3"/></g><g pointer-events="all" display="none" transform="translate(17, -7)"><circle cx="8" cy="8" r="4" stroke="none" fill="red" fill-opacity="0.3"/></g><g pointer-events="all" display="none" transform="translate(42, -7)"><circle cx="8" cy="8" r="4" stroke="none" fill="red" fill-opacity="0.3"/></g><g pointer-events="all" display="none" transform="translate(67, -7)"><circle cx="8" cy="8" r="4" stroke="none" fill="red" fill-opacity="0.3"/></g><g pointer-events="all" display="none" transform="translate(42, 32)"><circle cx="8" cy="8" r="4" stroke="none" fill="red" fill-opacity="0.3"/></g></g></g></g><g id="_71B207C5-56D5-4DA6-A4DC-682547CDF208" bpmn2nodeid="_4993E788-0AFB-4980-B4F6-9E8144A504D6"><g class="stencils" transform="translate(643.0000029802322, 166)"><g class="me"><g pointer-events="fill" id="_71B207C5-56D5-4DA6-A4DC-682547CDF208">      <defs id="_71B207C5-56D5-4DA6-A4DC-682547CDF208__71B207C5-56D5-4DA6-A4DC-682547CDF208_5"> 		<radialGradient id="_71B207C5-56D5-4DA6-A4DC-682547CDF208background" cx="10%" cy="10%" r="100%" fx="10%" fy="10%"> 			<stop offset="0%" stop-color="#ffffff" stop-opacity="1" id="_71B207C5-56D5-4DA6-A4DC-682547CDF208__71B207C5-56D5-4DA6-A4DC-682547CDF208_6"/> 			<stop id="_71B207C5-56D5-4DA6-A4DC-682547CDF208fill_el" offset="100%" stop-color="#ff6347" stop-opacity="1"/> 		</radialGradient> 		<radialGradient id="_71B207C5-56D5-4DA6-A4DC-682547CDF208borderbackground" cx="10%" cy="10%" r="100%" fx="10%" fy="10%"> 			<stop offset="0%" stop-color="#ffffff" stop-opacity="1" id="_71B207C5-56D5-4DA6-A4DC-682547CDF208__71B207C5-56D5-4DA6-A4DC-682547CDF208_7"/> 			<stop id="_71B207C5-56D5-4DA6-A4DC-682547CDF208fill_border" offset="100%" stop-color="#000000" stop-opacity="1" stroke="#000000"/> 		</radialGradient> 	</defs> 	     <circle id="_71B207C5-56D5-4DA6-A4DC-682547CDF208bg_frame" cx="14" cy="14" r="14" stroke="#000000" fill="url(#_71B207C5-56D5-4DA6-A4DC-682547CDF208background) white" stroke-width="3"/>    	<path id="_71B207C5-56D5-4DA6-A4DC-682547CDF208frame" stroke="#000000" fill="url(#_71B207C5-56D5-4DA6-A4DC-682547CDF208borderbackground)" stroke-width="1" d=" M6 9  L6 19  L22 19  L22 9  L14 15  z"/> 	<path id="_71B207C5-56D5-4DA6-A4DC-682547CDF208frame2" stroke="#000000" fill="url(#_71B207C5-56D5-4DA6-A4DC-682547CDF208borderbackground)" stroke-width="1" d=" M6 8  L14 14  L22 8  z"/> 	<text font-size="11" id="_71B207C5-56D5-4DA6-A4DC-682547CDF208text_name" x="14" y="30" oryx:align="top center" stroke="black" stroke-width="0pt" letter-spacing="-0.01px" fill="#000000" text-anchor="middle" transform="rotate(0 14 30)" visibility="inherit" oryx:fontSize="11"/>   </g></g><g class="children" style="overflow:hidden"/><g class="edge"/></g><g class="controls"><g class="dockers"/><g class="magnets" transform="translate(643.0000029802322, 166)"><g pointer-events="all" display="none" transform="translate(6, 6)"><circle cx="8" cy="8" r="4" stroke="none" fill="red" fill-opacity="0.3"/></g></g></g></g></g><g class="edge"><g id="_07CEAE93-1FB0-4E85-ADF7-0DA60E74F73D" bpmn2nodeid="_5BF6EFD8-0820-4D9D-A536-56AC70FE0040"><g class="stencils"><g class="me"><g pointer-events="painted" bpmn2nodeid="_5BF6EFD8-0820-4D9D-A536-56AC70FE0040"><path id="_07CEAE93-1FB0-4E85-ADF7-0DA60E74F73D_1" d="M210.53125 180L299.3515625 180 " stroke="#000000" fill="none" stroke-width="2" stroke-linecap="round" stroke-linejoin="round" marker-start="url(#_07CEAE93-1FB0-4E85-ADF7-0DA60E74F73Dstart)" marker-end="url(#_07CEAE93-1FB0-4E85-ADF7-0DA60E74F73Dend)"/></g><text id="_07CEAE93-1FB0-4E85-ADF7-0DA60E74F73Dtext_name" font-size="12" x="224.53125" y="166" oryx:edgePosition="startTop" stroke-width="0pt" letter-spacing="-0.01px" fill="#000000" text-anchor="start" transform="rotate(360 210.53125 180)" visibility="inherit" oryx:fontSize="12"/></g><g class="children" style="overflow:hidden"/><g class="edge"/></g><g class="controls"><g class="dockers"/><g class="magnets"/></g></g><g id="_706BB094-ADA6-44F3-BBFA-95341075D5B2" bpmn2nodeid="_F3A86C87-8309-4523-B03B-F52B5DE27A2C"><g class="stencils"><g class="me"><g pointer-events="painted" bpmn2nodeid="_F3A86C87-8309-4523-B03B-F52B5DE27A2C"><path id="_706BB094-ADA6-44F3-BBFA-95341075D5B2_1" d="M400.62890625 180L464.37109375 180 " stroke="#000000" fill="none" stroke-width="2" stroke-linecap="round" stroke-linejoin="round" marker-start="url(#_706BB094-ADA6-44F3-BBFA-95341075D5B2start)" marker-end="url(#_706BB094-ADA6-44F3-BBFA-95341075D5B2end)"/></g><text id="_706BB094-ADA6-44F3-BBFA-95341075D5B2text_name" font-size="12" x="414.62890625" y="166" oryx:edgePosition="startTop" stroke-width="0pt" letter-spacing="-0.01px" fill="#000000" text-anchor="start" transform="rotate(360 400.62890625 180)" visibility="inherit" oryx:fontSize="12"/></g><g class="children" style="overflow:hidden"/><g class="edge"/></g><g class="controls"><g class="dockers"/><g class="magnets"/></g></g><g id="_9BDEB062-0CD5-485F-B670-3E4BBD29D5D8" bpmn2nodeid="_DB252EDE-D1C5-4B84-A37F-EAC896C913B4"><g class="stencils"><g class="me"><g pointer-events="painted" bpmn2nodeid="_DB252EDE-D1C5-4B84-A37F-EAC896C913B4"><path id="_9BDEB062-0CD5-485F-B670-3E4BBD29D5D8_1" d="M565.9218760477379 180L642.6875027008355 180 " stroke="#000000" fill="none" stroke-width="2" stroke-linecap="round" stroke-linejoin="round" marker-start="url(#_9BDEB062-0CD5-485F-B670-3E4BBD29D5D8start)" marker-end="url(#_9BDEB062-0CD5-485F-B670-3E4BBD29D5D8end)"/></g><text id="_9BDEB062-0CD5-485F-B670-3E4BBD29D5D8text_name" font-size="12" x="579.9218760477379" y="166" oryx:edgePosition="startTop" stroke-width="0pt" letter-spacing="-0.01px" fill="#000000" text-anchor="start" transform="rotate(360 565.9218760477379 180)" visibility="inherit" oryx:fontSize="12"/></g><g class="children" style="overflow:hidden"/><g class="edge"/></g><g class="controls"><g class="dockers"/><g class="magnets"/></g></g></g><text id="_E5E4EAA4-F728-40B2-969F-3B777974C112" style="stroke-width:1;fill:rgb(177,194,214);font-family:arial;font-weight:bold" font-size="12" onclick="ORYX.Plugins.CanvasTitle.openTextualAnalysis()" onmouseover="ORYX.Plugins.CanvasTitle.addToolTip('_E5E4EAA4-F728-40B2-969F-3B777974C112')" transform="translate(10, 20)">new cv v.1.0 (src.newcv)</text></g></g></svg>