<svg xmlns="http://www.w3.org/2000/svg" xmlns:oryx="http://oryx-editor.org" id="_EDF6A601-7504-4368-B2AE-673EF5641AC0" width="938" height="261" xmlns:xlink="http://www.w3.org/1999/xlink" xmlns:svg="http://www.w3.org/2000/svg"><defs><marker id="_EDB8AAC5-3BE5-495E-A251-4943A5B430E9start" refX="1" refY="5" markerUnits="userSpaceOnUse" markerWidth="17" markerHeight="11" orient="auto" fill="#000000" stroke="#000000"> 	  		<path id="_EDB8AAC5-3BE5-495E-A251-4943A5B430E9conditional" d="M 0 5 L 8 0 L 16 5 L 8 10 L 0 5" fill="white" stroke="#000000" stroke-width="1" display="none"/> 			<path id="_EDB8AAC5-3BE5-495E-A251-4943A5B430E9default" d="M 5 0 L 11 10" fill="white" stroke="#000000" stroke-width="1" display="none"/> 	  	</marker><marker id="_EDB8AAC5-3BE5-495E-A251-4943A5B430E9end" refX="15" refY="6" markerUnits="userSpaceOnUse" markerWidth="15" markerHeight="12" orient="auto" fill="#000000" stroke="#000000"> 	  		<path id="_EDB8AAC5-3BE5-495E-A251-4943A5B430E9frame2" d="M 0 1 L 15 6 L 0 11z" fill="#000000" stroke="#000000" stroke-linejoin="round" stroke-width="2"/> 	  	</marker><marker id="_34B534ED-AF59-4BB7-BBF9-CCF4E8F48304start" refX="1" refY="5" markerUnits="userSpaceOnUse" markerWidth="17" markerHeight="11" orient="auto" fill="#000000" stroke="#000000"> 	  		<path id="_34B534ED-AF59-4BB7-BBF9-CCF4E8F48304conditional" d="M 0 5 L 8 0 L 16 5 L 8 10 L 0 5" fill="white" stroke="#000000" stroke-width="1" display="none"/> 			<path id="_34B534ED-AF59-4BB7-BBF9-CCF4E8F48304default" d="M 5 0 L 11 10" fill="white" stroke="#000000" stroke-width="1" display="none"/> 	  	</marker><marker id="_34B534ED-AF59-4BB7-BBF9-CCF4E8F48304end" refX="15" refY="6" markerUnits="userSpaceOnUse" markerWidth="15" markerHeight="12" orient="auto" fill="#000000" stroke="#000000"> 	  		<path id="_34B534ED-AF59-4BB7-BBF9-CCF4E8F48304frame2" d="M 0 1 L 15 6 L 0 11z" fill="#000000" stroke="#000000" stroke-linejoin="round" stroke-width="2"/> 	  	</marker><marker id="_D15107C9-6871-431D-8417-0F68141A60DEstart" refX="1" refY="5" markerUnits="userSpaceOnUse" markerWidth="17" markerHeight="11" orient="auto" fill="#000000" stroke="#000000"> 	  		<path id="_D15107C9-6871-431D-8417-0F68141A60DEconditional" d="M 0 5 L 8 0 L 16 5 L 8 10 L 0 5" fill="white" stroke="#000000" stroke-width="1" display="none"/> 			<path id="_D15107C9-6871-431D-8417-0F68141A60DEdefault" d="M 5 0 L 11 10" fill="white" stroke="#000000" stroke-width="1" display="none"/> 	  	</marker><marker id="_D15107C9-6871-431D-8417-0F68141A60DEend" refX="15" refY="6" markerUnits="userSpaceOnUse" markerWidth="15" markerHeight="12" orient="auto" fill="#000000" stroke="#000000"> 	  		<path id="_D15107C9-6871-431D-8417-0F68141A60DEframe2" d="M 0 1 L 15 6 L 0 11z" fill="#000000" stroke="#000000" stroke-linejoin="round" stroke-width="2"/> 	  	</marker><marker id="_3B4C827D-CD3F-473D-88B8-1D3EC8BFF44Bstart" refX="1" refY="5" markerUnits="userSpaceOnUse" markerWidth="17" markerHeight="11" orient="auto" fill="#000000" stroke="#000000"> 	  		<path id="_3B4C827D-CD3F-473D-88B8-1D3EC8BFF44Bconditional" d="M 0 5 L 8 0 L 16 5 L 8 10 L 0 5" fill="white" stroke="#000000" stroke-width="1" display="none"/> 			<path id="_3B4C827D-CD3F-473D-88B8-1D3EC8BFF44Bdefault" d="M 5 0 L 11 10" fill="white" stroke="#000000" stroke-width="1" display="none"/> 	  	</marker><marker id="_3B4C827D-CD3F-473D-88B8-1D3EC8BFF44Bend" refX="15" refY="6" markerUnits="userSpaceOnUse" markerWidth="15" markerHeight="12" orient="auto" fill="#000000" stroke="#000000"> 	  		<path id="_3B4C827D-CD3F-473D-88B8-1D3EC8BFF44Bframe2" d="M 0 1 L 15 6 L 0 11z" fill="#000000" stroke="#000000" stroke-linejoin="round" stroke-width="2"/> 	  	</marker></defs><g stroke="none" font-family="Verdana, sans-serif" font-size-adjust="none" font-style="normal" font-variant="normal" font-weight="normal" line-heigth="normal" font-size="12"><g class="stencils" transform="translate(15, 16)"><g class="me"/><g class="children"><g id="_8CBF6EFC-9664-4E9A-899D-5DF53C2A70E4" bpmn2nodeid="processStartEvent"><g class="stencils" transform="translate(195, 165)"><g class="me"><g pointer-events="fill" id="_8CBF6EFC-9664-4E9A-899D-5DF53C2A70E4">        <defs id="_8CBF6EFC-9664-4E9A-899D-5DF53C2A70E4__8CBF6EFC-9664-4E9A-899D-5DF53C2A70E4_5"> 		<radialGradient id="_8CBF6EFC-9664-4E9A-899D-5DF53C2A70E4background" cx="10%" cy="10%" r="100%" fx="10%" fy="10%"> 			<stop offset="0%" stop-color="#ffffff" stop-opacity="1" id="_8CBF6EFC-9664-4E9A-899D-5DF53C2A70E4__8CBF6EFC-9664-4E9A-899D-5DF53C2A70E4_6"/> 			<stop id="_8CBF6EFC-9664-4E9A-899D-5DF53C2A70E4fill_el" offset="100%" stop-color="#9acd32" stop-opacity="1"/> 		</radialGradient> 	</defs> 	     <circle id="_8CBF6EFC-9664-4E9A-899D-5DF53C2A70E4bg_frame" cx="15" cy="15" r="15" stroke="#000000" fill="url(#_8CBF6EFC-9664-4E9A-899D-5DF53C2A70E4background) white" stroke-width="1" style="stroke-dasharray: 5.5, 3"/>      <circle id="_8CBF6EFC-9664-4E9A-899D-5DF53C2A70E4frame" cx="15" cy="15" r="15" stroke="#000000" fill="none" stroke-width="1" display="inherit"/>  	<text font-size="11" id="_8CBF6EFC-9664-4E9A-899D-5DF53C2A70E4text_name" x="15" y="32" oryx:align="top center" stroke="black" stroke-width="0pt" letter-spacing="-0.01px" fill="#000000" text-anchor="middle" transform="rotate(0 15 32)" visibility="inherit" oryx:fontSize="11"/>   </g></g><g class="children" style="overflow:hidden"/><g class="edge"/></g><g class="controls"><g class="dockers"/><g class="magnets" transform="translate(195, 165)"><g pointer-events="all" display="none" transform="translate(7, 7)"><circle cx="8" cy="8" r="4" stroke="none" fill="red" fill-opacity="0.3"/></g></g></g></g><g id="_D3E2A8D7-12B2-42B5-81D0-B08465B1CFC2" bpmn2nodeid="_2C357B67-D29D-4E8F-8758-2BD6BF717660"><g class="stencils" transform="translate(315, 140)"><g class="me"><g pointer-events="fill" oryx:minimumSize="50 40" id="_D3E2A8D7-12B2-42B5-81D0-B08465B1CFC2">   	<defs id="_D3E2A8D7-12B2-42B5-81D0-B08465B1CFC2__D3E2A8D7-12B2-42B5-81D0-B08465B1CFC2_17"> 		<radialGradient id="_D3E2A8D7-12B2-42B5-81D0-B08465B1CFC2background" cx="10%" cy="10%" r="100%" fx="10%" fy="10%"> 			<stop offset="0%" stop-color="#ffffff" stop-opacity="1" id="_D3E2A8D7-12B2-42B5-81D0-B08465B1CFC2__D3E2A8D7-12B2-42B5-81D0-B08465B1CFC2_18"/> 			<stop id="_D3E2A8D7-12B2-42B5-81D0-B08465B1CFC2fill_el" offset="100%" stop-color="#fafad2" stop-opacity="1"/> 		</radialGradient> 		<radialGradient id="_D3E2A8D7-12B2-42B5-81D0-B08465B1CFC2borderbackground" cx="10%" cy="10%" r="100%" fx="10%" fy="10%"> 			<stop offset="0%" stop-color="#ffffff" stop-opacity="1" id="_D3E2A8D7-12B2-42B5-81D0-B08465B1CFC2__D3E2A8D7-12B2-42B5-81D0-B08465B1CFC2_19"/> 			<stop id="_D3E2A8D7-12B2-42B5-81D0-B08465B1CFC2fill_border" offset="100%" stop-color="#000000" stop-opacity="1" stroke="#000000"/> 		</radialGradient> 	</defs> 	 	<rect id="_D3E2A8D7-12B2-42B5-81D0-B08465B1CFC2text_frame" oryx:anchors="bottom top right left" x="1" y="1" width="94" height="79" rx="10" ry="10" stroke="none" stroke-width="0" fill="none"/> 	<rect id="_D3E2A8D7-12B2-42B5-81D0-B08465B1CFC2bg_frame" oryx:resize="vertical horizontal" x="0" y="0" width="100" height="80" rx="10" ry="10" stroke="#000000" stroke-width="1" fill="url(#_D3E2A8D7-12B2-42B5-81D0-B08465B1CFC2background) #ffffcc"/> 		<text font-size="12" id="_D3E2A8D7-12B2-42B5-81D0-B08465B1CFC2text_name" x="50" y="40" oryx:align="middle center" oryx:fittoelem="text_frame" stroke="black" text-anchor="middle" stroke-width="0pt" letter-spacing="-0.01px" fill="#000000" transform="rotate(0 50 40)" visibility="inherit" oryx:fontSize="12"><tspan x="50" y="40" dy="-1" id="ext-gen824">Create new </tspan><tspan x="50" y="40" dy="11" id="ext-gen809">position</tspan></text>     <g id="_D3E2A8D7-12B2-42B5-81D0-B08465B1CFC2manualTask" transform="scale(0.7,0.7) translate(8,8)" display="none">     	<path oryx:anchors="top left" id="_D3E2A8D7-12B2-42B5-81D0-B08465B1CFC2frame" style="opacity:1;fill:none;fill-opacity:1;stroke-width:1" d="M0.5,3.751l4.083-3.25c0,0,11.166,0.083,12.083,0.083s-2.417,2.917-1.5,2.917     s11.667,0,12.584,0c1.166,1.708-0.168,3.167-0.834,3.667s0.875,1.917-1,4.417c-0.75,0.25,0.75,1.875-1.333,3.333     c-1.167,0.583,0.583,1.542-1.25,2.833c-1.167,0-20.833,0.083-20.833,0.083l-2-1.333V3.751z" stroke="#000000"/> 		<path id="_D3E2A8D7-12B2-42B5-81D0-B08465B1CFC2frame2" oryx:anchors="top left" style="opacity:1;fill:none;stroke-width:2" d="M 13.5 7 L 27 7" stroke="#000000"/> 		<path id="_D3E2A8D7-12B2-42B5-81D0-B08465B1CFC2frame3" oryx:anchors="top left" style="opacity:1;fill:none;stroke-width:2" d="M 13.5 11 L 26 11" stroke="#000000"/> 		<path id="_D3E2A8D7-12B2-42B5-81D0-B08465B1CFC2frame4" oryx:anchors="top left" style="opacity:1;fill:none;stroke-width:1.5" d="M 14 14.5 L 25 14.5" stroke="#000000"/> 		<path id="_D3E2A8D7-12B2-42B5-81D0-B08465B1CFC2frame5" oryx:anchors="top left" style="opacity:1;fill:none;stroke-width:1.5" d="M 8.2 3.1 L 15 3.1" stroke="#000000"/> 	</g> 	 	<g id="_D3E2A8D7-12B2-42B5-81D0-B08465B1CFC2businessRuleTask" transform="scale(0.7,0.7) translate(8,8)" display="none"> 		<rect id="_D3E2A8D7-12B2-42B5-81D0-B08465B1CFC2frame6" oryx:anchors="top left" x="0" y="0" width="22" height="4" style="opacity:1;fill:#B3B1B3;fill-opacity:1;" stroke="#000000"/> 		<rect id="_D3E2A8D7-12B2-42B5-81D0-B08465B1CFC2frame7" oryx:anchors="top left" x="0" y="4" style="opacity:1;fill:none;" width="22" height="12" stroke="#000000"/> 		<path id="_D3E2A8D7-12B2-42B5-81D0-B08465B1CFC2frame8" oryx:anchors="top left" style="opacity:1;fill:none;" d="M 0 10 L 22 10" stroke="#000000"/> 		<path id="_D3E2A8D7-12B2-42B5-81D0-B08465B1CFC2frame9" oryx:anchors="top left" style="opacity:1; fill:none;" d="M 7 4 L 7 16" stroke="#000000"/> 	</g> 	 	<g id="_D3E2A8D7-12B2-42B5-81D0-B08465B1CFC2scriptTask" transform="scale(0.7,0.7) translate(8,8)" display="none"> 		<path oryx:anchors="top left" id="_D3E2A8D7-12B2-42B5-81D0-B08465B1CFC2frame10" style="opacity:1;fill:none;" stroke="#000000" d="M6.402,0.5h14.5c0,0-5.833,2.833-5.833,5.583s4.417,6,4.417,9.167    s-4.167,5.083-4.167,5.083H0.235c0,0,5-2.667,5-5s-4.583-6.75-4.583-9.25S6.402,0.5,6.402,0.5z"/> 		<path oryx:anchors="top left" id="_D3E2A8D7-12B2-42B5-81D0-B08465B1CFC2frame11" style="opacity:1;fill:none;stroke-width:1.5" d="M 3.5 4.5 L 13.5 4.5" stroke="#000000"/> 		<path oryx:anchors="top left" id="_D3E2A8D7-12B2-42B5-81D0-B08465B1CFC2frame12" style="opacity:1;fill:none;stroke-width:1.5" d="M 3.8 8.5 L 13.8 8.5" stroke="#000000"/> 		<path oryx:anchors="top left" id="_D3E2A8D7-12B2-42B5-81D0-B08465B1CFC2frame13" style="opacity:1;fill:none;stroke-width:1.5" d="M 6.3 12.5 L 16.3 12.5" stroke="#000000"/> 		<path oryx:anchors="top left" id="_D3E2A8D7-12B2-42B5-81D0-B08465B1CFC2frame14" style="opacity:1;fill:none;stroke-width:1.5" d="M 6.5 16.5 L 16.5 16.5" stroke="#000000"/> 	</g> 	 	<g id="_D3E2A8D7-12B2-42B5-81D0-B08465B1CFC2userTask" transform="scale(0.7,0.7) translate(8,8)" display="none"> 		<path id="_D3E2A8D7-12B2-42B5-81D0-B08465B1CFC2frame15" oryx:anchors="top left" style="opacity:1;fill:#F4F6F7" stroke="#000000" d="M0.585,24.167h24.083v-7.833c0,0-2.333-3.917-7.083-5.167h-9.25    c-4.417,1.333-7.833,5.75-7.833,5.75L0.585,24.167z"/> 		<path id="_D3E2A8D7-12B2-42B5-81D0-B08465B1CFC2frame16" oryx:anchors="top left" style="opacity:1;fill:none" d="M 6 20 L 6 24" stroke="#000000"/> 		<path id="_D3E2A8D7-12B2-42B5-81D0-B08465B1CFC2frame17" oryx:anchors="top left" style="opacity:1;fill:none" d="M 20 20 L 20 24" stroke="#000000"/> 		<circle id="_D3E2A8D7-12B2-42B5-81D0-B08465B1CFC2frame18" oryx:anchors="top left" fill="black" cx="13.002" cy="5.916" r="5.417" stroke="#000000"/> 		<path id="_D3E2A8D7-12B2-42B5-81D0-B08465B1CFC2frame19" oryx:anchors="top left" style="opacity:1;fill:#F0EFF0;" stroke="#000000" d="M8.043,7.083c0,0,2.814-2.426,5.376-1.807s4.624-0.693,4.624-0.693    c0.25,1.688,0.042,3.75-1.458,5.584c0,0,1.083,0.75,1.083,1.5s0.125,1.875-1,3s-5.5,1.25-6.75,0S8.668,12.834,8.668,12    s0.583-1.25,1.25-1.917C8.835,9.5,7.419,7.708,8.043,7.083z"/> 	</g> 	 	<g id="_D3E2A8D7-12B2-42B5-81D0-B08465B1CFC2serviceTask" transform="scale(0.7,0.7) translate(8,8)" display="none"> 		<polygon oryx:anchors="top left" id="_D3E2A8D7-12B2-42B5-81D0-B08465B1CFC2frame20" style="opacity:1;fill:#ffffff" stroke="#000000" points="15.392,5.064 17.954,2.502 20.347,4.895 17.786,7.455     18.729,9.732 22.353,9.732 22.353,13.115 18.731,13.115 17.788,15.392 20.351,17.955 17.958,20.347 15.397,17.786 13.12,18.729     13.12,22.353 9.737,22.353 9.737,18.731 7.46,17.788 4.897,20.35 2.506,17.958 5.066,15.397 4.124,13.12 0.5,13.12 0.5,9.737     4.121,9.737 5.065,7.461 2.503,4.898 4.895,2.506 7.455,5.066 9.732,4.125 9.732,0.5 13.116,0.5 13.116,4.121 "/> 		<circle oryx:anchors="top left" id="_D3E2A8D7-12B2-42B5-81D0-B08465B1CFC2frame21" style="opacity:1;fill:none" stroke="#000000" cx="11.427" cy="11.426" r="3.714"/> 		<polygon oryx:anchors="top left" id="_D3E2A8D7-12B2-42B5-81D0-B08465B1CFC2frame22" style="opacity:1;fill:#ffffff" stroke="#000000" points="21.392,11.064 23.954,8.502 26.347,10.895 23.786,13.455     24.729,15.732 28.353,15.732 28.353,19.115 24.731,19.115 23.788,21.392 26.351,23.955 23.958,26.347 21.397,23.786 19.12,24.729     19.12,28.353 15.737,28.353 15.737,24.731 13.46,23.788 10.897,26.35 8.506,23.958 11.066,21.397 10.124,19.12 6.5,19.12     6.5,15.737 10.121,15.737 11.065,13.461 8.503,10.898 10.895,8.506 13.455,11.066 15.732,10.125 15.732,6.5 19.116,6.5     19.116,10.121 "/> 		<circle oryx:anchors="top left" id="_D3E2A8D7-12B2-42B5-81D0-B08465B1CFC2frame23" style="opacity:1;fill:none;" stroke="#000000" cx="17.427" cy="17.426" r="3.714"/> 	</g> 	 	<g id="_D3E2A8D7-12B2-42B5-81D0-B08465B1CFC2sendTask" display="none"> 		<path id="_D3E2A8D7-12B2-42B5-81D0-B08465B1CFC2stframe24" oryx:anchors="left top" stroke="#FFFFFF" fill="black" stroke-width="1" d="M8,11 L8,21 L24,21 L24,11 L16,17z"/> 		<path id="_D3E2A8D7-12B2-42B5-81D0-B08465B1CFC2stframe25" oryx:anchors="left top" stroke="#FFFFFF" fill="black" stroke-width="1" d="M7,10 L16,17 L25 10z"/> 	</g> 	 	<g id="_D3E2A8D7-12B2-42B5-81D0-B08465B1CFC2receiveTask" display="none"> 		<path id="_D3E2A8D7-12B2-42B5-81D0-B08465B1CFC2frame26" oryx:anchors="left top" stroke="#000000" fill="none" stroke-width="1" d="M8,11 L8,21 L24,21 L24,11z M8,11 L16,17 L24,11"/> 	</g> 	 	<g id="_D3E2A8D7-12B2-42B5-81D0-B08465B1CFC2none" display="inherit"/>  	<g id="_D3E2A8D7-12B2-42B5-81D0-B08465B1CFC2sequential" display="none">         <path oryx:anchors="bottom" fill="none" stroke="#000000" stroke-width="2" d="M46,76h10M46,72h10 M46,68h10" id="_D3E2A8D7-12B2-42B5-81D0-B08465B1CFC2__D3E2A8D7-12B2-42B5-81D0-B08465B1CFC2_20"/>     </g>   </g></g><g class="children" style="overflow:hidden"/><g class="edge"/></g><g class="controls"><g class="dockers"/><g class="magnets" transform="translate(315, 140)"><g pointer-events="all" display="none" transform="translate(-7, 12)"><circle cx="8" cy="8" r="4" stroke="none" fill="red" fill-opacity="0.3"/></g><g pointer-events="all" display="none" transform="translate(-7, 32)"><circle cx="8" cy="8" r="4" stroke="none" fill="red" fill-opacity="0.3"/></g><g pointer-events="all" display="none" transform="translate(-7, 52)"><circle cx="8" cy="8" r="4" stroke="none" fill="red" fill-opacity="0.3"/></g><g pointer-events="all" display="none" transform="translate(17, 71)"><circle cx="8" cy="8" r="4" stroke="none" fill="red" fill-opacity="0.3"/></g><g pointer-events="all" display="none" transform="translate(42, 71)"><circle cx="8" cy="8" r="4" stroke="none" fill="red" fill-opacity="0.3"/></g><g pointer-events="all" display="none" transform="translate(67, 71)"><circle cx="8" cy="8" r="4" stroke="none" fill="red" fill-opacity="0.3"/></g><g pointer-events="all" display="none" transform="translate(91, 12)"><circle cx="8" cy="8" r="4" stroke="none" fill="red" fill-opacity="0.3"/></g><g pointer-events="all" display="none" transform="translate(91, 32)"><circle cx="8" cy="8" r="4" stroke="none" fill="red" fill-opacity="0.3"/></g><g pointer-events="all" display="none" transform="translate(91, 52)"><circle cx="8" cy="8" r="4" stroke="none" fill="red" fill-opacity="0.3"/></g><g pointer-events="all" display="none" transform="translate(17, -7)"><circle cx="8" cy="8" r="4" stroke="none" fill="red" fill-opacity="0.3"/></g><g pointer-events="all" display="none" transform="translate(42, -7)"><circle cx="8" cy="8" r="4" stroke="none" fill="red" fill-opacity="0.3"/></g><g pointer-events="all" display="none" transform="translate(67, -7)"><circle cx="8" cy="8" r="4" stroke="none" fill="red" fill-opacity="0.3"/></g><g pointer-events="all" display="none" transform="translate(42, 32)"><circle cx="8" cy="8" r="4" stroke="none" fill="red" fill-opacity="0.3"/></g></g></g></g><g id="_496407C9-F3D0-4E01-9F4F-6CA65A5A406A" bpmn2nodeid="_25E7514F-3B4F-43BE-8AA3-B2482526F2B6"><g class="stencils" transform="translate(510, 140)"><g class="me"><g pointer-events="fill" oryx:minimumSize="50 40" id="_496407C9-F3D0-4E01-9F4F-6CA65A5A406A">   	<defs id="_496407C9-F3D0-4E01-9F4F-6CA65A5A406A__496407C9-F3D0-4E01-9F4F-6CA65A5A406A_17"> 		<radialGradient id="_496407C9-F3D0-4E01-9F4F-6CA65A5A406Abackground" cx="10%" cy="10%" r="100%" fx="10%" fy="10%"> 			<stop offset="0%" stop-color="#ffffff" stop-opacity="1" id="_496407C9-F3D0-4E01-9F4F-6CA65A5A406A__496407C9-F3D0-4E01-9F4F-6CA65A5A406A_18"/> 			<stop id="_496407C9-F3D0-4E01-9F4F-6CA65A5A406Afill_el" offset="100%" stop-color="#fafad2" stop-opacity="1"/> 		</radialGradient> 		<radialGradient id="_496407C9-F3D0-4E01-9F4F-6CA65A5A406Aborderbackground" cx="10%" cy="10%" r="100%" fx="10%" fy="10%"> 			<stop offset="0%" stop-color="#ffffff" stop-opacity="1" id="_496407C9-F3D0-4E01-9F4F-6CA65A5A406A__496407C9-F3D0-4E01-9F4F-6CA65A5A406A_19"/> 			<stop id="_496407C9-F3D0-4E01-9F4F-6CA65A5A406Afill_border" offset="100%" stop-color="#000000" stop-opacity="1" stroke="#000000"/> 		</radialGradient> 	</defs> 	 	<rect id="_496407C9-F3D0-4E01-9F4F-6CA65A5A406Atext_frame" oryx:anchors="bottom top right left" x="1" y="1" width="94" height="79" rx="10" ry="10" stroke="none" stroke-width="0" fill="none"/> 	<rect id="_496407C9-F3D0-4E01-9F4F-6CA65A5A406Abg_frame" oryx:resize="vertical horizontal" x="0" y="0" width="100" height="80" rx="10" ry="10" stroke="#000000" stroke-width="1" fill="url(#_496407C9-F3D0-4E01-9F4F-6CA65A5A406Abackground) #ffffcc"/> 		<text font-size="12" id="_496407C9-F3D0-4E01-9F4F-6CA65A5A406Atext_name" x="50" y="40" oryx:align="middle center" oryx:fittoelem="text_frame" stroke="black" text-anchor="middle" stroke-width="0pt" letter-spacing="-0.01px" fill="#000000" transform="rotate(0 50 40)" visibility="inherit" oryx:fontSize="12"><tspan x="50" y="40" dy="-1" id="ext-gen968">Define position </tspan><tspan x="50" y="40" dy="11" id="ext-gen969">conditions</tspan></text>     <g id="_496407C9-F3D0-4E01-9F4F-6CA65A5A406AmanualTask" transform="scale(0.7,0.7) translate(8,8)" display="none">     	<path oryx:anchors="top left" id="_496407C9-F3D0-4E01-9F4F-6CA65A5A406Aframe" style="opacity:1;fill:none;fill-opacity:1;stroke-width:1" d="M0.5,3.751l4.083-3.25c0,0,11.166,0.083,12.083,0.083s-2.417,2.917-1.5,2.917     s11.667,0,12.584,0c1.166,1.708-0.168,3.167-0.834,3.667s0.875,1.917-1,4.417c-0.75,0.25,0.75,1.875-1.333,3.333     c-1.167,0.583,0.583,1.542-1.25,2.833c-1.167,0-20.833,0.083-20.833,0.083l-2-1.333V3.751z" stroke="#000000"/> 		<path id="_496407C9-F3D0-4E01-9F4F-6CA65A5A406Aframe2" oryx:anchors="top left" style="opacity:1;fill:none;stroke-width:2" d="M 13.5 7 L 27 7" stroke="#000000"/> 		<path id="_496407C9-F3D0-4E01-9F4F-6CA65A5A406Aframe3" oryx:anchors="top left" style="opacity:1;fill:none;stroke-width:2" d="M 13.5 11 L 26 11" stroke="#000000"/> 		<path id="_496407C9-F3D0-4E01-9F4F-6CA65A5A406Aframe4" oryx:anchors="top left" style="opacity:1;fill:none;stroke-width:1.5" d="M 14 14.5 L 25 14.5" stroke="#000000"/> 		<path id="_496407C9-F3D0-4E01-9F4F-6CA65A5A406Aframe5" oryx:anchors="top left" style="opacity:1;fill:none;stroke-width:1.5" d="M 8.2 3.1 L 15 3.1" stroke="#000000"/> 	</g> 	 	<g id="_496407C9-F3D0-4E01-9F4F-6CA65A5A406AbusinessRuleTask" transform="scale(0.7,0.7) translate(8,8)" display="none"> 		<rect id="_496407C9-F3D0-4E01-9F4F-6CA65A5A406Aframe6" oryx:anchors="top left" x="0" y="0" width="22" height="4" style="opacity:1;fill:#B3B1B3;fill-opacity:1;" stroke="#000000"/> 		<rect id="_496407C9-F3D0-4E01-9F4F-6CA65A5A406Aframe7" oryx:anchors="top left" x="0" y="4" style="opacity:1;fill:none;" width="22" height="12" stroke="#000000"/> 		<path id="_496407C9-F3D0-4E01-9F4F-6CA65A5A406Aframe8" oryx:anchors="top left" style="opacity:1;fill:none;" d="M 0 10 L 22 10" stroke="#000000"/> 		<path id="_496407C9-F3D0-4E01-9F4F-6CA65A5A406Aframe9" oryx:anchors="top left" style="opacity:1; fill:none;" d="M 7 4 L 7 16" stroke="#000000"/> 	</g> 	 	<g id="_496407C9-F3D0-4E01-9F4F-6CA65A5A406AscriptTask" transform="scale(0.7,0.7) translate(8,8)" display="none"> 		<path oryx:anchors="top left" id="_496407C9-F3D0-4E01-9F4F-6CA65A5A406Aframe10" style="opacity:1;fill:none;" stroke="#000000" d="M6.402,0.5h14.5c0,0-5.833,2.833-5.833,5.583s4.417,6,4.417,9.167    s-4.167,5.083-4.167,5.083H0.235c0,0,5-2.667,5-5s-4.583-6.75-4.583-9.25S6.402,0.5,6.402,0.5z"/> 		<path oryx:anchors="top left" id="_496407C9-F3D0-4E01-9F4F-6CA65A5A406Aframe11" style="opacity:1;fill:none;stroke-width:1.5" d="M 3.5 4.5 L 13.5 4.5" stroke="#000000"/> 		<path oryx:anchors="top left" id="_496407C9-F3D0-4E01-9F4F-6CA65A5A406Aframe12" style="opacity:1;fill:none;stroke-width:1.5" d="M 3.8 8.5 L 13.8 8.5" stroke="#000000"/> 		<path oryx:anchors="top left" id="_496407C9-F3D0-4E01-9F4F-6CA65A5A406Aframe13" style="opacity:1;fill:none;stroke-width:1.5" d="M 6.3 12.5 L 16.3 12.5" stroke="#000000"/> 		<path oryx:anchors="top left" id="_496407C9-F3D0-4E01-9F4F-6CA65A5A406Aframe14" style="opacity:1;fill:none;stroke-width:1.5" d="M 6.5 16.5 L 16.5 16.5" stroke="#000000"/> 	</g> 	 	<g id="_496407C9-F3D0-4E01-9F4F-6CA65A5A406AuserTask" transform="scale(0.7,0.7) translate(8,8)" display="none"> 		<path id="_496407C9-F3D0-4E01-9F4F-6CA65A5A406Aframe15" oryx:anchors="top left" style="opacity:1;fill:#F4F6F7" stroke="#000000" d="M0.585,24.167h24.083v-7.833c0,0-2.333-3.917-7.083-5.167h-9.25    c-4.417,1.333-7.833,5.75-7.833,5.75L0.585,24.167z"/> 		<path id="_496407C9-F3D0-4E01-9F4F-6CA65A5A406Aframe16" oryx:anchors="top left" style="opacity:1;fill:none" d="M 6 20 L 6 24" stroke="#000000"/> 		<path id="_496407C9-F3D0-4E01-9F4F-6CA65A5A406Aframe17" oryx:anchors="top left" style="opacity:1;fill:none" d="M 20 20 L 20 24" stroke="#000000"/> 		<circle id="_496407C9-F3D0-4E01-9F4F-6CA65A5A406Aframe18" oryx:anchors="top left" fill="black" cx="13.002" cy="5.916" r="5.417" stroke="#000000"/> 		<path id="_496407C9-F3D0-4E01-9F4F-6CA65A5A406Aframe19" oryx:anchors="top left" style="opacity:1;fill:#F0EFF0;" stroke="#000000" d="M8.043,7.083c0,0,2.814-2.426,5.376-1.807s4.624-0.693,4.624-0.693    c0.25,1.688,0.042,3.75-1.458,5.584c0,0,1.083,0.75,1.083,1.5s0.125,1.875-1,3s-5.5,1.25-6.75,0S8.668,12.834,8.668,12    s0.583-1.25,1.25-1.917C8.835,9.5,7.419,7.708,8.043,7.083z"/> 	</g> 	 	<g id="_496407C9-F3D0-4E01-9F4F-6CA65A5A406AserviceTask" transform="scale(0.7,0.7) translate(8,8)" display="none"> 		<polygon oryx:anchors="top left" id="_496407C9-F3D0-4E01-9F4F-6CA65A5A406Aframe20" style="opacity:1;fill:#ffffff" stroke="#000000" points="15.392,5.064 17.954,2.502 20.347,4.895 17.786,7.455     18.729,9.732 22.353,9.732 22.353,13.115 18.731,13.115 17.788,15.392 20.351,17.955 17.958,20.347 15.397,17.786 13.12,18.729     13.12,22.353 9.737,22.353 9.737,18.731 7.46,17.788 4.897,20.35 2.506,17.958 5.066,15.397 4.124,13.12 0.5,13.12 0.5,9.737     4.121,9.737 5.065,7.461 2.503,4.898 4.895,2.506 7.455,5.066 9.732,4.125 9.732,0.5 13.116,0.5 13.116,4.121 "/> 		<circle oryx:anchors="top left" id="_496407C9-F3D0-4E01-9F4F-6CA65A5A406Aframe21" style="opacity:1;fill:none" stroke="#000000" cx="11.427" cy="11.426" r="3.714"/> 		<polygon oryx:anchors="top left" id="_496407C9-F3D0-4E01-9F4F-6CA65A5A406Aframe22" style="opacity:1;fill:#ffffff" stroke="#000000" points="21.392,11.064 23.954,8.502 26.347,10.895 23.786,13.455     24.729,15.732 28.353,15.732 28.353,19.115 24.731,19.115 23.788,21.392 26.351,23.955 23.958,26.347 21.397,23.786 19.12,24.729     19.12,28.353 15.737,28.353 15.737,24.731 13.46,23.788 10.897,26.35 8.506,23.958 11.066,21.397 10.124,19.12 6.5,19.12     6.5,15.737 10.121,15.737 11.065,13.461 8.503,10.898 10.895,8.506 13.455,11.066 15.732,10.125 15.732,6.5 19.116,6.5     19.116,10.121 "/> 		<circle oryx:anchors="top left" id="_496407C9-F3D0-4E01-9F4F-6CA65A5A406Aframe23" style="opacity:1;fill:none;" stroke="#000000" cx="17.427" cy="17.426" r="3.714"/> 	</g> 	 	<g id="_496407C9-F3D0-4E01-9F4F-6CA65A5A406AsendTask" display="none"> 		<path id="_496407C9-F3D0-4E01-9F4F-6CA65A5A406Astframe24" oryx:anchors="left top" stroke="#FFFFFF" fill="black" stroke-width="1" d="M8,11 L8,21 L24,21 L24,11 L16,17z"/> 		<path id="_496407C9-F3D0-4E01-9F4F-6CA65A5A406Astframe25" oryx:anchors="left top" stroke="#FFFFFF" fill="black" stroke-width="1" d="M7,10 L16,17 L25 10z"/> 	</g> 	 	<g id="_496407C9-F3D0-4E01-9F4F-6CA65A5A406AreceiveTask" display="none"> 		<path id="_496407C9-F3D0-4E01-9F4F-6CA65A5A406Aframe26" oryx:anchors="left top" stroke="#000000" fill="none" stroke-width="1" d="M8,11 L8,21 L24,21 L24,11z M8,11 L16,17 L24,11"/> 	</g> 	 	<g id="_496407C9-F3D0-4E01-9F4F-6CA65A5A406Anone" display="inherit"/>  	<g id="_496407C9-F3D0-4E01-9F4F-6CA65A5A406Asequential" display="none">         <path oryx:anchors="bottom" fill="none" stroke="#000000" stroke-width="2" d="M46,76h10M46,72h10 M46,68h10" id="_496407C9-F3D0-4E01-9F4F-6CA65A5A406A__496407C9-F3D0-4E01-9F4F-6CA65A5A406A_20"/>     </g>   </g></g><g class="children" style="overflow:hidden"/><g class="edge"/></g><g class="controls"><g class="dockers"/><g class="magnets" transform="translate(510, 140)"><g pointer-events="all" display="none" transform="translate(-7, 12)"><circle cx="8" cy="8" r="4" stroke="none" fill="red" fill-opacity="0.3"/></g><g pointer-events="all" display="none" transform="translate(-7, 32)"><circle cx="8" cy="8" r="4" stroke="none" fill="red" fill-opacity="0.3"/></g><g pointer-events="all" display="none" transform="translate(-7, 52)"><circle cx="8" cy="8" r="4" stroke="none" fill="red" fill-opacity="0.3"/></g><g pointer-events="all" display="none" transform="translate(17, 71)"><circle cx="8" cy="8" r="4" stroke="none" fill="red" fill-opacity="0.3"/></g><g pointer-events="all" display="none" transform="translate(42, 71)"><circle cx="8" cy="8" r="4" stroke="none" fill="red" fill-opacity="0.3"/></g><g pointer-events="all" display="none" transform="translate(67, 71)"><circle cx="8" cy="8" r="4" stroke="none" fill="red" fill-opacity="0.3"/></g><g pointer-events="all" display="none" transform="translate(91, 12)"><circle cx="8" cy="8" r="4" stroke="none" fill="red" fill-opacity="0.3"/></g><g pointer-events="all" display="none" transform="translate(91, 32)"><circle cx="8" cy="8" r="4" stroke="none" fill="red" fill-opacity="0.3"/></g><g pointer-events="all" display="none" transform="translate(91, 52)"><circle cx="8" cy="8" r="4" stroke="none" fill="red" fill-opacity="0.3"/></g><g pointer-events="all" display="none" transform="translate(17, -7)"><circle cx="8" cy="8" r="4" stroke="none" fill="red" fill-opacity="0.3"/></g><g pointer-events="all" display="none" transform="translate(42, -7)"><circle cx="8" cy="8" r="4" stroke="none" fill="red" fill-opacity="0.3"/></g><g pointer-events="all" display="none" transform="translate(67, -7)"><circle cx="8" cy="8" r="4" stroke="none" fill="red" fill-opacity="0.3"/></g><g pointer-events="all" display="none" transform="translate(42, 32)"><circle cx="8" cy="8" r="4" stroke="none" fill="red" fill-opacity="0.3"/></g></g></g></g><g id="_7332FDEA-AB11-4AA6-B2F9-0A35F34F3990" bpmn2nodeid="_C0CF2EA6-E0D4-4EBC-B636-7CE772AE8475"><g class="stencils" transform="translate(690, 140)"><g class="me"><g pointer-events="fill" oryx:minimumSize="50 40" id="_7332FDEA-AB11-4AA6-B2F9-0A35F34F3990">   	<defs id="_7332FDEA-AB11-4AA6-B2F9-0A35F34F3990__7332FDEA-AB11-4AA6-B2F9-0A35F34F3990_17"> 		<radialGradient id="_7332FDEA-AB11-4AA6-B2F9-0A35F34F3990background" cx="10%" cy="10%" r="100%" fx="10%" fy="10%"> 			<stop offset="0%" stop-color="#ffffff" stop-opacity="1" id="_7332FDEA-AB11-4AA6-B2F9-0A35F34F3990__7332FDEA-AB11-4AA6-B2F9-0A35F34F3990_18"/> 			<stop id="_7332FDEA-AB11-4AA6-B2F9-0A35F34F3990fill_el" offset="100%" stop-color="#fafad2" stop-opacity="1"/> 		</radialGradient> 		<radialGradient id="_7332FDEA-AB11-4AA6-B2F9-0A35F34F3990borderbackground" cx="10%" cy="10%" r="100%" fx="10%" fy="10%"> 			<stop offset="0%" stop-color="#ffffff" stop-opacity="1" id="_7332FDEA-AB11-4AA6-B2F9-0A35F34F3990__7332FDEA-AB11-4AA6-B2F9-0A35F34F3990_19"/> 			<stop id="_7332FDEA-AB11-4AA6-B2F9-0A35F34F3990fill_border" offset="100%" stop-color="#000000" stop-opacity="1" stroke="#000000"/> 		</radialGradient> 	</defs> 	 	<rect id="_7332FDEA-AB11-4AA6-B2F9-0A35F34F3990text_frame" oryx:anchors="bottom top right left" x="1" y="1" width="94" height="79" rx="10" ry="10" stroke="none" stroke-width="0" fill="none"/> 	<rect id="_7332FDEA-AB11-4AA6-B2F9-0A35F34F3990bg_frame" oryx:resize="vertical horizontal" x="0" y="0" width="100" height="80" rx="10" ry="10" stroke="#000000" stroke-width="1" fill="url(#_7332FDEA-AB11-4AA6-B2F9-0A35F34F3990background) #ffffcc"/> 		<text font-size="12" id="_7332FDEA-AB11-4AA6-B2F9-0A35F34F3990text_name" x="50" y="40" oryx:align="middle center" oryx:fittoelem="text_frame" stroke="black" text-anchor="middle" stroke-width="0pt" letter-spacing="-0.01px" fill="#000000" transform="rotate(0 50 40)" visibility="inherit" oryx:fontSize="12"><tspan x="50" y="40" dy="5" id="ext-gen1065">Public position</tspan></text>     <g id="_7332FDEA-AB11-4AA6-B2F9-0A35F34F3990manualTask" transform="scale(0.7,0.7) translate(8,8)" display="none">     	<path oryx:anchors="top left" id="_7332FDEA-AB11-4AA6-B2F9-0A35F34F3990frame" style="opacity:1;fill:none;fill-opacity:1;stroke-width:1" d="M0.5,3.751l4.083-3.25c0,0,11.166,0.083,12.083,0.083s-2.417,2.917-1.5,2.917     s11.667,0,12.584,0c1.166,1.708-0.168,3.167-0.834,3.667s0.875,1.917-1,4.417c-0.75,0.25,0.75,1.875-1.333,3.333     c-1.167,0.583,0.583,1.542-1.25,2.833c-1.167,0-20.833,0.083-20.833,0.083l-2-1.333V3.751z" stroke="#000000"/> 		<path id="_7332FDEA-AB11-4AA6-B2F9-0A35F34F3990frame2" oryx:anchors="top left" style="opacity:1;fill:none;stroke-width:2" d="M 13.5 7 L 27 7" stroke="#000000"/> 		<path id="_7332FDEA-AB11-4AA6-B2F9-0A35F34F3990frame3" oryx:anchors="top left" style="opacity:1;fill:none;stroke-width:2" d="M 13.5 11 L 26 11" stroke="#000000"/> 		<path id="_7332FDEA-AB11-4AA6-B2F9-0A35F34F3990frame4" oryx:anchors="top left" style="opacity:1;fill:none;stroke-width:1.5" d="M 14 14.5 L 25 14.5" stroke="#000000"/> 		<path id="_7332FDEA-AB11-4AA6-B2F9-0A35F34F3990frame5" oryx:anchors="top left" style="opacity:1;fill:none;stroke-width:1.5" d="M 8.2 3.1 L 15 3.1" stroke="#000000"/> 	</g> 	 	<g id="_7332FDEA-AB11-4AA6-B2F9-0A35F34F3990businessRuleTask" transform="scale(0.7,0.7) translate(8,8)" display="none"> 		<rect id="_7332FDEA-AB11-4AA6-B2F9-0A35F34F3990frame6" oryx:anchors="top left" x="0" y="0" width="22" height="4" style="opacity:1;fill:#B3B1B3;fill-opacity:1;" stroke="#000000"/> 		<rect id="_7332FDEA-AB11-4AA6-B2F9-0A35F34F3990frame7" oryx:anchors="top left" x="0" y="4" style="opacity:1;fill:none;" width="22" height="12" stroke="#000000"/> 		<path id="_7332FDEA-AB11-4AA6-B2F9-0A35F34F3990frame8" oryx:anchors="top left" style="opacity:1;fill:none;" d="M 0 10 L 22 10" stroke="#000000"/> 		<path id="_7332FDEA-AB11-4AA6-B2F9-0A35F34F3990frame9" oryx:anchors="top left" style="opacity:1; fill:none;" d="M 7 4 L 7 16" stroke="#000000"/> 	</g> 	 	<g id="_7332FDEA-AB11-4AA6-B2F9-0A35F34F3990scriptTask" transform="scale(0.7,0.7) translate(8,8)" display="none"> 		<path oryx:anchors="top left" id="_7332FDEA-AB11-4AA6-B2F9-0A35F34F3990frame10" style="opacity:1;fill:none;" stroke="#000000" d="M6.402,0.5h14.5c0,0-5.833,2.833-5.833,5.583s4.417,6,4.417,9.167    s-4.167,5.083-4.167,5.083H0.235c0,0,5-2.667,5-5s-4.583-6.75-4.583-9.25S6.402,0.5,6.402,0.5z"/> 		<path oryx:anchors="top left" id="_7332FDEA-AB11-4AA6-B2F9-0A35F34F3990frame11" style="opacity:1;fill:none;stroke-width:1.5" d="M 3.5 4.5 L 13.5 4.5" stroke="#000000"/> 		<path oryx:anchors="top left" id="_7332FDEA-AB11-4AA6-B2F9-0A35F34F3990frame12" style="opacity:1;fill:none;stroke-width:1.5" d="M 3.8 8.5 L 13.8 8.5" stroke="#000000"/> 		<path oryx:anchors="top left" id="_7332FDEA-AB11-4AA6-B2F9-0A35F34F3990frame13" style="opacity:1;fill:none;stroke-width:1.5" d="M 6.3 12.5 L 16.3 12.5" stroke="#000000"/> 		<path oryx:anchors="top left" id="_7332FDEA-AB11-4AA6-B2F9-0A35F34F3990frame14" style="opacity:1;fill:none;stroke-width:1.5" d="M 6.5 16.5 L 16.5 16.5" stroke="#000000"/> 	</g> 	 	<g id="_7332FDEA-AB11-4AA6-B2F9-0A35F34F3990userTask" transform="scale(0.7,0.7) translate(8,8)" display="none"> 		<path id="_7332FDEA-AB11-4AA6-B2F9-0A35F34F3990frame15" oryx:anchors="top left" style="opacity:1;fill:#F4F6F7" stroke="#000000" d="M0.585,24.167h24.083v-7.833c0,0-2.333-3.917-7.083-5.167h-9.25    c-4.417,1.333-7.833,5.75-7.833,5.75L0.585,24.167z"/> 		<path id="_7332FDEA-AB11-4AA6-B2F9-0A35F34F3990frame16" oryx:anchors="top left" style="opacity:1;fill:none" d="M 6 20 L 6 24" stroke="#000000"/> 		<path id="_7332FDEA-AB11-4AA6-B2F9-0A35F34F3990frame17" oryx:anchors="top left" style="opacity:1;fill:none" d="M 20 20 L 20 24" stroke="#000000"/> 		<circle id="_7332FDEA-AB11-4AA6-B2F9-0A35F34F3990frame18" oryx:anchors="top left" fill="black" cx="13.002" cy="5.916" r="5.417" stroke="#000000"/> 		<path id="_7332FDEA-AB11-4AA6-B2F9-0A35F34F3990frame19" oryx:anchors="top left" style="opacity:1;fill:#F0EFF0;" stroke="#000000" d="M8.043,7.083c0,0,2.814-2.426,5.376-1.807s4.624-0.693,4.624-0.693    c0.25,1.688,0.042,3.75-1.458,5.584c0,0,1.083,0.75,1.083,1.5s0.125,1.875-1,3s-5.5,1.25-6.75,0S8.668,12.834,8.668,12    s0.583-1.25,1.25-1.917C8.835,9.5,7.419,7.708,8.043,7.083z"/> 	</g> 	 	<g id="_7332FDEA-AB11-4AA6-B2F9-0A35F34F3990serviceTask" transform="scale(0.7,0.7) translate(8,8)" display="none"> 		<polygon oryx:anchors="top left" id="_7332FDEA-AB11-4AA6-B2F9-0A35F34F3990frame20" style="opacity:1;fill:#ffffff" stroke="#000000" points="15.392,5.064 17.954,2.502 20.347,4.895 17.786,7.455     18.729,9.732 22.353,9.732 22.353,13.115 18.731,13.115 17.788,15.392 20.351,17.955 17.958,20.347 15.397,17.786 13.12,18.729     13.12,22.353 9.737,22.353 9.737,18.731 7.46,17.788 4.897,20.35 2.506,17.958 5.066,15.397 4.124,13.12 0.5,13.12 0.5,9.737     4.121,9.737 5.065,7.461 2.503,4.898 4.895,2.506 7.455,5.066 9.732,4.125 9.732,0.5 13.116,0.5 13.116,4.121 "/> 		<circle oryx:anchors="top left" id="_7332FDEA-AB11-4AA6-B2F9-0A35F34F3990frame21" style="opacity:1;fill:none" stroke="#000000" cx="11.427" cy="11.426" r="3.714"/> 		<polygon oryx:anchors="top left" id="_7332FDEA-AB11-4AA6-B2F9-0A35F34F3990frame22" style="opacity:1;fill:#ffffff" stroke="#000000" points="21.392,11.064 23.954,8.502 26.347,10.895 23.786,13.455     24.729,15.732 28.353,15.732 28.353,19.115 24.731,19.115 23.788,21.392 26.351,23.955 23.958,26.347 21.397,23.786 19.12,24.729     19.12,28.353 15.737,28.353 15.737,24.731 13.46,23.788 10.897,26.35 8.506,23.958 11.066,21.397 10.124,19.12 6.5,19.12     6.5,15.737 10.121,15.737 11.065,13.461 8.503,10.898 10.895,8.506 13.455,11.066 15.732,10.125 15.732,6.5 19.116,6.5     19.116,10.121 "/> 		<circle oryx:anchors="top left" id="_7332FDEA-AB11-4AA6-B2F9-0A35F34F3990frame23" style="opacity:1;fill:none;" stroke="#000000" cx="17.427" cy="17.426" r="3.714"/> 	</g> 	 	<g id="_7332FDEA-AB11-4AA6-B2F9-0A35F34F3990sendTask" display="none"> 		<path id="_7332FDEA-AB11-4AA6-B2F9-0A35F34F3990stframe24" oryx:anchors="left top" stroke="#FFFFFF" fill="black" stroke-width="1" d="M8,11 L8,21 L24,21 L24,11 L16,17z"/> 		<path id="_7332FDEA-AB11-4AA6-B2F9-0A35F34F3990stframe25" oryx:anchors="left top" stroke="#FFFFFF" fill="black" stroke-width="1" d="M7,10 L16,17 L25 10z"/> 	</g> 	 	<g id="_7332FDEA-AB11-4AA6-B2F9-0A35F34F3990receiveTask" display="none"> 		<path id="_7332FDEA-AB11-4AA6-B2F9-0A35F34F3990frame26" oryx:anchors="left top" stroke="#000000" fill="none" stroke-width="1" d="M8,11 L8,21 L24,21 L24,11z M8,11 L16,17 L24,11"/> 	</g> 	 	<g id="_7332FDEA-AB11-4AA6-B2F9-0A35F34F3990none" display="inherit"/>  	<g id="_7332FDEA-AB11-4AA6-B2F9-0A35F34F3990sequential" display="none">         <path oryx:anchors="bottom" fill="none" stroke="#000000" stroke-width="2" d="M46,76h10M46,72h10 M46,68h10" id="_7332FDEA-AB11-4AA6-B2F9-0A35F34F3990__7332FDEA-AB11-4AA6-B2F9-0A35F34F3990_20"/>     </g>   </g></g><g class="children" style="overflow:hidden"/><g class="edge"/></g><g class="controls"><g class="dockers"/><g class="magnets" transform="translate(690, 140)"><g pointer-events="all" display="none" transform="translate(-7, 12)"><circle cx="8" cy="8" r="4" stroke="none" fill="red" fill-opacity="0.3"/></g><g pointer-events="all" display="none" transform="translate(-7, 32)"><circle cx="8" cy="8" r="4" stroke="none" fill="red" fill-opacity="0.3"/></g><g pointer-events="all" display="none" transform="translate(-7, 52)"><circle cx="8" cy="8" r="4" stroke="none" fill="red" fill-opacity="0.3"/></g><g pointer-events="all" display="none" transform="translate(17, 71)"><circle cx="8" cy="8" r="4" stroke="none" fill="red" fill-opacity="0.3"/></g><g pointer-events="all" display="none" transform="translate(42, 71)"><circle cx="8" cy="8" r="4" stroke="none" fill="red" fill-opacity="0.3"/></g><g pointer-events="all" display="none" transform="translate(67, 71)"><circle cx="8" cy="8" r="4" stroke="none" fill="red" fill-opacity="0.3"/></g><g pointer-events="all" display="none" transform="translate(91, 12)"><circle cx="8" cy="8" r="4" stroke="none" fill="red" fill-opacity="0.3"/></g><g pointer-events="all" display="none" transform="translate(91, 32)"><circle cx="8" cy="8" r="4" stroke="none" fill="red" fill-opacity="0.3"/></g><g pointer-events="all" display="none" transform="translate(91, 52)"><circle cx="8" cy="8" r="4" stroke="none" fill="red" fill-opacity="0.3"/></g><g pointer-events="all" display="none" transform="translate(17, -7)"><circle cx="8" cy="8" r="4" stroke="none" fill="red" fill-opacity="0.3"/></g><g pointer-events="all" display="none" transform="translate(42, -7)"><circle cx="8" cy="8" r="4" stroke="none" fill="red" fill-opacity="0.3"/></g><g pointer-events="all" display="none" transform="translate(67, -7)"><circle cx="8" cy="8" r="4" stroke="none" fill="red" fill-opacity="0.3"/></g><g pointer-events="all" display="none" transform="translate(42, 32)"><circle cx="8" cy="8" r="4" stroke="none" fill="red" fill-opacity="0.3"/></g></g></g></g><g id="_E45E60DC-7EEF-42AD-B396-4DE90A32BEF9" bpmn2nodeid="_D5F5D074-818C-426C-A1CD-9F010F15D0F5"><g class="stencils" transform="translate(870, 166)"><g class="me"><g pointer-events="fill" id="_E45E60DC-7EEF-42AD-B396-4DE90A32BEF9">      <defs id="_E45E60DC-7EEF-42AD-B396-4DE90A32BEF9__E45E60DC-7EEF-42AD-B396-4DE90A32BEF9_5"> 		<radialGradient id="_E45E60DC-7EEF-42AD-B396-4DE90A32BEF9background" cx="10%" cy="10%" r="100%" fx="10%" fy="10%"> 			<stop offset="0%" stop-color="#ffffff" stop-opacity="1" id="_E45E60DC-7EEF-42AD-B396-4DE90A32BEF9__E45E60DC-7EEF-42AD-B396-4DE90A32BEF9_6"/> 			<stop id="_E45E60DC-7EEF-42AD-B396-4DE90A32BEF9fill_el" offset="100%" stop-color="#ff6347" stop-opacity="1"/> 		</radialGradient> 	</defs> 	     <circle id="_E45E60DC-7EEF-42AD-B396-4DE90A32BEF9bg_frame" cx="14" cy="14" r="14" stroke="#000000" fill="url(#_E45E60DC-7EEF-42AD-B396-4DE90A32BEF9background) white" stroke-width="3"/> 	<text font-size="11" id="_E45E60DC-7EEF-42AD-B396-4DE90A32BEF9text_name" x="14" y="30" oryx:align="top center" stroke="black" stroke-width="0pt" letter-spacing="-0.01px" fill="#000000" text-anchor="middle" transform="rotate(0 14 30)" visibility="inherit" oryx:fontSize="11"/>   </g></g><g class="children" style="overflow:hidden"/><g class="edge"/></g><g class="controls"><g class="dockers"/><g class="magnets" transform="translate(870, 166)"><g pointer-events="all" display="none" transform="translate(6, 6)"><circle cx="8" cy="8" r="4" stroke="none" fill="red" fill-opacity="0.3"/></g></g></g></g></g><g class="edge"><g id="_EDB8AAC5-3BE5-495E-A251-4943A5B430E9" bpmn2nodeid="_C2A0B316-F70B-4A7C-BA88-73A4BD777749"><g class="stencils"><g class="me"><g pointer-events="painted" bpmn2nodeid="_C2A0B316-F70B-4A7C-BA88-73A4BD777749"><path id="_EDB8AAC5-3BE5-495E-A251-4943A5B430E9_1" d="M225.53125 180L314.3515625 180 " stroke="#000000" fill="none" stroke-width="2" stroke-linecap="round" stroke-linejoin="round" marker-start="url(#_EDB8AAC5-3BE5-495E-A251-4943A5B430E9start)" marker-end="url(#_EDB8AAC5-3BE5-495E-A251-4943A5B430E9end)"/></g><text id="_EDB8AAC5-3BE5-495E-A251-4943A5B430E9text_name" font-size="12" x="239.53125" y="166" oryx:edgePosition="startTop" stroke-width="0pt" letter-spacing="-0.01px" fill="#000000" text-anchor="start" transform="rotate(360 225.53125 180)" visibility="inherit" oryx:fontSize="12"/></g><g class="children" style="overflow:hidden"/><g class="edge"/></g><g class="controls"><g class="dockers"/><g class="magnets"/></g></g><g id="_34B534ED-AF59-4BB7-BBF9-CCF4E8F48304" bpmn2nodeid="_0EF34C7F-2F16-469C-9096-5952C25B5072"><g class="stencils"><g class="me"><g pointer-events="painted" bpmn2nodeid="_0EF34C7F-2F16-469C-9096-5952C25B5072"><path id="_34B534ED-AF59-4BB7-BBF9-CCF4E8F48304_1" d="M415.51171875 180L509.48828125 180 " stroke="#000000" fill="none" stroke-width="2" stroke-linecap="round" stroke-linejoin="round" marker-start="url(#_34B534ED-AF59-4BB7-BBF9-CCF4E8F48304start)" marker-end="url(#_34B534ED-AF59-4BB7-BBF9-CCF4E8F48304end)"/></g><text id="_34B534ED-AF59-4BB7-BBF9-CCF4E8F48304text_name" font-size="12" x="429.51171875" y="166" oryx:edgePosition="startTop" stroke-width="0pt" letter-spacing="-0.01px" fill="#000000" text-anchor="start" transform="rotate(360 415.51171875 180)" visibility="inherit" oryx:fontSize="12"/></g><g class="children" style="overflow:hidden"/><g class="edge"/></g><g class="controls"><g class="dockers"/><g class="magnets"/></g></g><g id="_D15107C9-6871-431D-8417-0F68141A60DE" bpmn2nodeid="_6C0CB1EB-4CB3-4080-AF0A-7D31CB69BC18"><g class="stencils"><g class="me"><g pointer-events="painted" bpmn2nodeid="_6C0CB1EB-4CB3-4080-AF0A-7D31CB69BC18"><path id="_D15107C9-6871-431D-8417-0F68141A60DE_1" d="M610.21875 180L689.78125 180 " stroke="#000000" fill="none" stroke-width="2" stroke-linecap="round" stroke-linejoin="round" marker-start="url(#_D15107C9-6871-431D-8417-0F68141A60DEstart)" marker-end="url(#_D15107C9-6871-431D-8417-0F68141A60DEend)"/></g><text id="_D15107C9-6871-431D-8417-0F68141A60DEtext_name" font-size="12" x="624.21875" y="166" oryx:edgePosition="startTop" stroke-width="0pt" letter-spacing="-0.01px" fill="#000000" text-anchor="start" transform="rotate(360 610.21875 180)" visibility="inherit" oryx:fontSize="12"/></g><g class="children" style="overflow:hidden"/><g class="edge"/></g><g class="controls"><g class="dockers"/><g class="magnets"/></g></g><g id="_3B4C827D-CD3F-473D-88B8-1D3EC8BFF44B" bpmn2nodeid="_750A571E-5D9C-440E-B6E7-DBD64492FEC7"><g class="stencils"><g class="me"><g pointer-events="painted" bpmn2nodeid="_750A571E-5D9C-440E-B6E7-DBD64492FEC7"><path id="_3B4C827D-CD3F-473D-88B8-1D3EC8BFF44B_1" d="M790.5 180L869.5 180 " stroke="#000000" fill="none" stroke-width="2" stroke-linecap="round" stroke-linejoin="round" marker-start="url(#_3B4C827D-CD3F-473D-88B8-1D3EC8BFF44Bstart)" marker-end="url(#_3B4C827D-CD3F-473D-88B8-1D3EC8BFF44Bend)"/></g><text id="_3B4C827D-CD3F-473D-88B8-1D3EC8BFF44Btext_name" font-size="12" x="804.5" y="166" oryx:edgePosition="startTop" stroke-width="0pt" letter-spacing="-0.01px" fill="#000000" text-anchor="start" transform="rotate(360 790.5 180)" visibility="inherit" oryx:fontSize="12"/></g><g class="children" style="overflow:hidden"/><g class="edge"/></g><g class="controls"><g class="dockers"/><g class="magnets"/></g></g></g><text id="_88CC8236-B599-4EE1-AB81-4B7AC0283B44" style="stroke-width:1;fill:rgb(177,194,214);font-family:arial;font-weight:bold" font-size="12" onclick="ORYX.Plugins.CanvasTitle.openTextualAnalysis()" onmouseover="ORYX.Plugins.CanvasTitle.addToolTip('_88CC8236-B599-4EE1-AB81-4B7AC0283B44')" transform="translate(10, 20)">Recruitment v.1.0 (src.Recruitment)</text></g></g></svg>